<svg xmlns="http://www.w3.org/2000/svg" xmlns:xlink="http://www.w3.org/1999/xlink" width="23" height="23" viewBox="0 0 23 23">
  <defs>
    <clipPath id="clip-path">
      <rect id="長方形_17" data-name="長方形 17" width="23" height="23" transform="translate(0 0)" fill="none"/>
    </clipPath>
  </defs>
  <g id="insta_icon" clip-path="url(#clip-path)">
    <path id="パス_9495" data-name="パス 9495" d="M16.275,23H6.725A6.732,6.732,0,0,1,0,16.275V6.725A6.732,6.732,0,0,1,6.725,0h9.551A6.732,6.732,0,0,1,23,6.725v9.551A6.732,6.732,0,0,1,16.275,23M6.725,2.144A4.586,4.586,0,0,0,2.144,6.725v9.551a4.586,4.586,0,0,0,4.581,4.581h9.551a4.586,4.586,0,0,0,4.581-4.581V6.725a4.586,4.586,0,0,0-4.581-4.581Z" transform="translate(0 0)" fill="#1a1311"/>
    <path id="パス_9496" data-name="パス 9496" d="M54.587,13.981a1.433,1.433,0,1,1-1.433-1.433,1.433,1.433,0,0,1,1.433,1.433" transform="translate(-35.508 -8.615)" fill="#1a1311"/>
    <path id="パス_9497" data-name="パス 9497" d="M23.666,29.612a5.945,5.945,0,1,1,5.945-5.945,5.952,5.952,0,0,1-5.945,5.945m0-9.746a3.8,3.8,0,1,0,3.8,3.8,3.805,3.805,0,0,0-3.8-3.8" transform="translate(-12.166 -12.167)" fill="#1a1311"/>
  </g>
</svg>
