<svg height="168.43" viewBox="0 0 785 168.43" width="785" xmlns="http://www.w3.org/2000/svg" xmlns:xlink="http://www.w3.org/1999/xlink"><clipPath id="a"><path d="m0 0h785v168.43h-785z"/></clipPath><g clip-path="url(#a)" fill="#fff" stroke="#fff" stroke-width=".5"><path d="m178 34.389a28.2 28.2 0 0 1 2.906 4.089 2.853 2.853 0 0 1 -.278 2.576c-2.7 2.8-3.427 6.442-4.464 9.929-.7 2.336-1.021 4.781-1.558 7.408l3.038.833c-.711 1.829-2.5 1.3-3.983 2.059a52.694 52.694 0 0 0 -.826 5.51c-.236 4.5-1.344 8.965-.458 13.532.619 3.2.946 3.533 4.335 2.99a7.919 7.919 0 0 1 1.43.032c-.672 2.568-1.44 3.262-3.587 3.376-2.18.117-4.352-1.107-4.781-3.173a35.878 35.878 0 0 1 -.915-8c.1-4.652.612-9.293.973-14.217-2.426.2-4.935.367-7.436.612-11.069 1.09-22.116.686-33.185-.169-4.61-.355-9.275 0-13.914-.007-1.586 0-3.174-.24-4.756-.187-5.139.174-10.284.737-15.409.575-5.36-.169-10.391 1.5-15.615 2.012a61.145 61.145 0 0 0 -9.427 1.518 112.183 112.183 0 0 0 -10.8 3.642 3.343 3.343 0 0 0 -1.658 1.786c-.94 2.408-1.769 4.866-2.5 7.346-1.715 5.777-3.369 11.571-5 17.371-.433 1.54-.64 3.144-1.069 4.685-1.415 5.088-2.97 10.138-4.306 15.246-1.273 4.867-2.406 9.773-3.448 14.694-.272 1.287.142 2.7.024 4.042a11.835 11.835 0 0 1 -.878 4.2 3.488 3.488 0 0 1 -2.6 1.38c-.4.026-1.259-1.44-1.271-2.237a22.851 22.851 0 0 1 .562-5.831c1.344-5.356 2.894-10.66 4.364-15.983 1.9-6.858 3.769-13.722 5.693-20.571 1.865-6.642 3.774-13.271 5.682-19.9.3-1.05.7-2.072 1.237-3.624-2.5 1.865-4.363.986-5.938-.6-.626-.63-1.348-1.88-1.109-2.487a4.11 4.11 0 0 1 2.369-2.032c1.611-.524 3.409-.46 5.03-.96a3.332 3.332 0 0 0 1.916-1.864c3.373-10.392 6.545-20.851 9.973-31.226 2.386-7.221 5.091-14.336 7.651-21.5.392-1.1.767-2.2 1.262-3.626-12.8.9-25.212 1.5-37.566 2.718-12.376 1.221-24.582 3.937-36.928 4.884-1.467-3.755-.972-4.54 2.358-4.782 3.8-.275 7.578-.767 11.369-1.123 7.727-.728 15.457-1.425 23.191-2.142 4.653-.432 9.3-.957 13.967-1.293 7.6-.557 15.218-.991 22.826-1.5.854-.057 1.7-.242 2.663-.385.544-1.243 1.071-2.461 1.744-4.015 1.347.365 2.62.625 3.835 1.054 4.817 1.7 9.6 2.661 14.671.783a5.344 5.344 0 0 1 5.625.672c.128 3.621-.1 3.713-3.445 3.812-4.045.119-8.082.539-12.121.83-2.19.157-4.38.319-6.772.493a38.036 38.036 0 0 0 -7.307 13.7c-2.529 7.865-5.441 15.607-8.058 23.444-1.439 4.309-2.6 8.709-3.9 13.064-.6 2-1.232 3.978-2.033 6.553 1.715-.315 3.087-.551 4.45-.821 3.86-.76 7.7-1.67 11.58-2.27 6.181-.954 12.37-2.094 18.6-2.444 8.443-.472 16.927-.432 25.389-.322 11.295.147 22.584.715 33.879.821 5.65.054 11.306-.515 17.151-.811a104.652 104.652 0 0 0 3-10.566c.607-3.365 2.573-6.364 2.338-9.974-.065-1.007 1.244-2.1 2.225-3.626"/><path d="m453.492 101.609c3.8-1.419 7.573-2.911 11.406-4.242 3.406-1.183 3.438-1.1 5.715 1.976-.428 2.184-.876 4.349-1.272 6.524a3.53 3.53 0 0 0 2.448 4.3 38.34 38.34 0 0 0 4.652 1c.521.108 1.037.23 1.711.38a7.193 7.193 0 0 1 -9 1.386c-2.226-1.305-3.728-3.109-3.8-5.886-.04-1.589-.331-3.17-.526-4.925-3.713.254-6.8 1.894-9.819 3.681q-4.293 2.539-8.509 5.2a17.537 17.537 0 0 0 -2.862 2.252 5.227 5.227 0 0 1 -5.663 1.471c-.855-3.265-.636-3.6 1.847-5.036a58.543 58.543 0 0 0 6.75-4.475 22.565 22.565 0 0 0 3.081-3.755 4.79 4.79 0 0 0 -4.971-.449 106.18 106.18 0 0 0 -9.64 4.563 99.112 99.112 0 0 0 -15.956 11.192 16.806 16.806 0 0 0 -2.184 2.434c-1.321 1.712-2.963 1.9-4.646.461-1.166-1-1.107-2.384.456-3.783 2.463-2.2 5.064-4.256 7.6-6.381 3.874-3.245 7.846-6.417 9.373-11.72-2.094-2.313-4.925-2.329-7.5-1.847a47.39 47.39 0 0 0 -13.625 4.45 20.746 20.746 0 0 0 -7.278 6.743l1.028 3.438c-4.532-.623-5.247-2.8-3.113-8.2l-18.771-1.115c-3.676 6.731-6.389 13.421-6.493 21.443l6.6-.969c-.851 3.413-5.914 6.136-8.762 4.5a3.57 3.57 0 0 1 -1.609-2.672 35.5 35.5 0 0 1 1.254-7.147c1.366-4.948 2.926-9.841 4.457-14.925-4.989-.768-9.316.7-13.7 1.579-.478.1-.829.8-1.244 1.218a4.18 4.18 0 0 1 -5.791-.364c-1.307-1.645-1.075-3.077.864-3.8a22.542 22.542 0 0 1 4.684-.994c5.325-.76 10.662-1.452 15.991-2.187a10.769 10.769 0 0 0 1.4-.379l3.14-9.859c2.786 2.587 5.014 4.653 7.242 6.721q-.185.421-.371.839l-4.9-.558c-.43.746-1 1.737-1.858 3.226 5.767.219 10.934 1.845 16.127.44 2.438-.66 2.883 1.055 3.662 2.151 4.092-1.815 7.9-3.887 11.945-5.2a43.178 43.178 0 0 1 13.774-2.032c5.5.053 6.338 4.106 5.718 7.726a23.738 23.738 0 0 1 -.686 2.3c1.637-.771 2.788-1.4 4-1.865a99.276 99.276 0 0 1 10.009-3.681c4.476-1.2 6.481.274 7.612 4.855" transform="translate(137.693 33.687)"/><path d="m225.422 36.819 2.691 5.241c-2.829.7-3.967 2.84-4.7 5.159a7.406 7.406 0 0 0 1.06 6.879 14.063 14.063 0 0 0 3.862-.605 92.028 92.028 0 0 0 10.865-5.374c3.079-1.882 5.027-4.977 6.372-8.321.822-2.045.7-2.094-.49-4.382a17.889 17.889 0 0 1 1.814-1.062c2.727-1.212 3.43-.851 3.816 2.04.387 2.912.6 5.849 1.051 8.75.417 2.687 1.68 3.612 4.375 3.091 4.423-.854 8.105-3.367 11.693-5.881a3.413 3.413 0 0 0 1.486-3.869c-.268-.858.293-1.94.243-2.908a1.77 1.77 0 0 1 1.683-2.019 4.063 4.063 0 0 1 2.757 1.359c.625.779.657 2.034 1.128 3.723a38.212 38.212 0 0 1 3.09-2.372c2.4-1.459 4.7-3.306 7.308-4.126 5-1.566 8.657 1.259 8.312 6.46-.114 1.7-.151 3.4-.221 5.014 2.916 1.548 2.916 1.548 6.839.757 1.159 1.441.529 2.645-.887 3.135a28.191 28.191 0 0 1 -6.118 1.3c-1.414.156-3.5-2.2-3.669-4.113-.229-2.529-.206-5.081-.3-7.826-1.239-.9-2.483-.805-3.959 0a38.3 38.3 0 0 0 -14.636 13.622 5.9 5.9 0 0 1 -4.339 2.984c-2.219-1.093-1.2-2.887-.686-4.942-2.491 1.162-4.549 1.975-6.461 3.048-3.038 1.708-5.931 1.108-8.779-.319a3.8 3.8 0 0 1 -1.272-1.668c-.623-1.179-1.147-2.412-1.707-3.609-3.188 2.455-6.188 5.124-9.537 7.235a38.717 38.717 0 0 1 -9.533 4.545c-6.514 1.912-11.087-3.462-9.054-10.306.787-2.648 2.023-5.138 1.854-8.064-.1-1.8 1.55-2.6 4.046-2.572" transform="translate(85.118 12.323)"/><path d="m293.817 123.969c-2.329-1.073-2.631-2.412-2.256-4.019.641-2.751 1.4-5.477 1.938-8.247.771-3.964 1.515-7.944 2-11.952.137-1.144.354-2.147 1.351-2.211a2.941 2.941 0 0 1 2.323 1.3 15.931 15.931 0 0 1 1.116 4.264 1.544 1.544 0 0 1 -.55 1.254c-3.015 2.075-2.126 5.224-2.951 8.744 3.424-2.959 6.136-5.339 8.888-7.671a25.405 25.405 0 0 1 12.178-5.671c1.327-.237 2.626-.646 3.949-.919 1.382-.285 2.729-.383 3.528 1.169.775 1.5 1.323 3.116-.117 4.413-2.54 2.284-2.37 5.257-2.268 8.171.069 1.969 1.246 2.641 2.976 1.827a44.117 44.117 0 0 0 12.57-8.3 10.174 10.174 0 0 0 2.058-3.735 20.062 20.062 0 0 0 1.233-4.995c.143-1.544.869-2.441 2.211-2.347.668.046 1.405 1.079 1.862 1.82 1.278 2.066.842 4-.211 6.165a11.492 11.492 0 0 0 -.251 10.138c2.208.021 4.263-.475 5.992 1.312-1.707 2.383-4.267 2.488-6.517 2.005-2.831-.608-3.716-3.234-4.273-6.034-1.9.4-3.135 1.814-4.606 2.82-2.427 1.659-4.8 3.4-7.307 4.939-2.133 1.311-4.509 1.579-6.638.053-2.177-1.559-3.742-3.6-3.247-6.557.182-1.082.446-2.151.685-3.223.315-1.418.643-2.831.991-4.367a12.512 12.512 0 0 0 -9.629 2.576c-5.4 3.994-10.914 8.025-14.149 14.279-.619 1.2-1.929 2.036-2.88 3" transform="translate(113.251 36.931)"/><path d="m559.767 88.5c2.705 2.626 2.677 3.834-.047 5.481a6.24 6.24 0 0 1 -2.357.941c-3.776.455-7.558.947-11.352 1.13-2.977.144-4.917.647-6.579 3.865-3.406 6.6-6.554 13.21-8.4 20.407-.262 1.023-.368 2.087-.568 3.255 3.631-.729 6.929-1.4 10.235-2.032.139-.026.346.305.817.747-4.259 2.161-7.73 5.468-12.524 6.428-2.232.446-3.212-.622-2.5-3.145.7-2.486 1.533-4.938 2.382-7.378 1.9-5.461 3.842-10.906 5.768-16.358.578-1.636 2.587-2.9 1.229-5.157a22.98 22.98 0 0 0 -4.237-.425c-9.393.722-18.775 1.555-28.161 2.343-2.109.178-3.32 1.234-3.2 3.973-1.745-1.125-3.1-1.911-4.359-2.831-1.736-1.273-1.439-3.6.672-4.173a33.362 33.362 0 0 1 6.925-1.055c7.468-.39 14.944-.625 22.416-.93 3.555-.144 7.108-.321 10.664-.468a4.657 4.657 0 0 0 4.3-2.394c1.441-2.654 2.894-5.3 4.414-8.086 3.006.569 4.868 2.137 5.613 5.028-3.488.472-3.488.472-6.481 3.874 3.49 1.848 11.044.414 15.329-3.04" transform="translate(192.277 32.112)"/><path d="m162.252 37.195c3.517-.6 4.935.376 5.864 4.185-.158.185-.285.467-.485.537-4.469 1.579-5.342 3.48-3.52 7.718.743 1.726 1.85 2.344 3.509 1.58 3.677-1.691 7.243-3.634 9.913-6.769a7.336 7.336 0 0 0 1.379-3.231 52.584 52.584 0 0 0 .547-5.267l4.544-.44c-.078 4.374-.147 8.322-.214 12.191 1.979 1.722 3.744 2.029 5.695.294 2.007-1.783 4.327-3.258 6.115-5.225 1.427-1.569 2.79-3.428 2.086-6-.25-.914.3-2.045.483-3.1 3.224.8 3.953 1.637 4.11 4.441a9.218 9.218 0 0 1 -2.988 7.258 83.522 83.522 0 0 1 -8.423 7.147c-3.322 2.461-7.482 1.571-9.82-1.947-1.065-1.6-1.805-1.73-3.451-.546-2.43 1.748-5.281 2.9-7.821 4.51-5.1 3.238-8.175.583-10.167-5.035-.979-2.762.186-5.345.8-7.936a27.559 27.559 0 0 1 1.848-4.371" transform="translate(61.878 13.086)"/><path d="m156.507 36.378c5.72 3.2 8.886 10.215 4.167 16.038a22.867 22.867 0 0 1 -15.147 8.191 5.619 5.619 0 0 1 -6.669-4.475 13.955 13.955 0 0 1 2.568-12.761c1.859-2.344 3.4-4.952 6.3-6.393 3.209-1.6 5.5-1.937 8.786-.6m-5.162 13.573c1.773.474 3.788 1.1 5.735-.179 2.012-1.328 2.669-3.881 1.726-6.426a5.846 5.846 0 0 0 -5.324-3.79c-1.608.094-2.5 1.144-2.161 2.983a2.2 2.2 0 0 1 -.794 2.541c-2.191 1.733-1.9 3.706.818 4.871m1.541 4.071c-6.645-2.524-5.338-1.4-8.122-7.371l-2.54 2.512c.074 1.63.219 2.845.167 4.052-.115 2.663 1.658 4.274 4.224 3.483a67.585 67.585 0 0 0 6.271-2.676" transform="translate(53.749 13.815)"/><path d="m299.124 27.017c1.872 1.422 3.177 2.019 3.884 3.034a6.192 6.192 0 0 0 5.338 2.715c.369.011.739.032 1.1.076 3.566.436 3.9.86 3.784 4.924-.5.156-1.132.585-1.618.461-3.18-.817-6.295.289-9.444.244a4.723 4.723 0 0 0 -2.922 1.119c-2.6 2.3-3.51 6.764-2.361 10.473 4.395 1.035 7.612-2.892 11.671-2.984.857 1.191.66 2.043-.385 2.643-3.149 1.811-6.317 3.566-9.952 4.285-4.649.921-6.675-2.4-6.253-6.488.256-2.479 1.186-4.889 1.941-7.828-3.909-.044-7.667-.026-11.021 2.5-4.9-1.1-5.452-1.857-4.034-5.268l18-2.415c.64-2.115 1.319-4.359 2.265-7.489" transform="translate(108.102 10.499)"/><path d="m254.265 113.549c-2.037 4.319-.1 7.3 5.023 7.078a15.321 15.321 0 0 1 2.57.14 3.359 3.359 0 0 1 .987.532c-.3 2.38-2.2 2.38-3.827 2.623-2.4.357-4.6.079-6.406-1.89-2.379-2.6-2.719-5.718-2.391-8.925.36-3.526.968-7.035 1.655-10.513.61-3.083 1.028-3.2 4.249-3.091a3.8 3.8 0 0 0 2.469-1c4.006-3.842 7.121-3.867 13.074-.692a14.919 14.919 0 0 1 4.4 3.824c1.834 2.281 1.376 4.644-1.021 6.361a18.607 18.607 0 0 1 -3.883 2.112 42.036 42.036 0 0 1 -7.287 2.511 95.943 95.943 0 0 1 -9.612.933m1.84-4.66c5.453 1.337 13.413-1.173 17.221-5.239-.512-.729-.9-1.932-1.62-2.18a41.73 41.73 0 0 0 -6.721-1.594 2.85 2.85 0 0 0 -1.909.823 45.079 45.079 0 0 0 -4.524 4.269 27.777 27.777 0 0 0 -2.447 3.921" transform="translate(97.197 37.118)"/><path d="m223.629 98.957c4.28 1 4.825 2.361 3.19 6.113-1 2.3-1.425 4.849-2.288 7.935 8.372-8.054 16.947-14.046 28.9-14.171-.385.883-.461 1.415-.768 1.673a5.261 5.261 0 0 1 -1.365.5c-4.126 1.7-8.43 3.091-12.313 5.236a40.4 40.4 0 0 0 -7.985 6.436c-3.369 3.222-6.565 6.61-8.039 11.273a19.1 19.1 0 0 1 -2.586 4.41c-.786 1.2-1.893 2.108-3.391 1.429-1.573-.714-1.4-2.161-.908-3.484 1.146-3.084 2.35-6.147 3.565-9.2a47.686 47.686 0 0 0 3.593-17.207c0-.221.179-.44.4-.939" transform="translate(83.835 38.407)"/><path d="m452.373 107.852c.232 3.28.26 3.306 3.176 3.077 2.551-.2 5.1-.394 7.944-.612-.157.873-.083 1.455-.339 1.737-3.381 3.73-10.381 3.606-13.5-.233a4.4 4.4 0 0 1 -.968-1.913 14.006 14.006 0 0 1 7.137-14.264c.973-.517 1.868-1.182 2.84-1.7 3.855-2.054 9.98-.433 12.075 3.166 1.872 3.216 1.637 5.359-1.53 7.2a46.136 46.136 0 0 1 -10.4 4.673c-1.836.521-4.159-.678-6.439-1.133m4.112-3.527c3.827.78 9.672-1.97 11.6-5.32-2.316-1.805-4.291-2.522-6.017-1.873-3.166 1.19-4.9 3.623-5.579 7.193" transform="translate(174.3 36.157)"/><path d="m504.76 107.043c-3.1.946-5.981 2.791-9.588 1.434-4.069-1.532-4.512-5.085-5.032-9.119-2.351 1.094-4.592 1.991-6.692 3.145-4.4 2.418-8.9 4.689-12.2 8.705-.68.826-2.136 1.014-3.2 1.483-1.868-3.3-1.752-3.216.217-5.921 2.724-3.741 5.256-7.623 8.177-11.9l4.3 3.98c2.519-.987 5.436-2.158 8.376-3.27a12.833 12.833 0 0 1 3.133-.894c2.487-.257 3.669 1.026 3.351 3.517-.124.971-.428 1.915-.6 2.881-.485 2.786.539 4.169 3.353 4.332 1.347.079 2.716-.249 4.062-.165a9.753 9.753 0 0 1 2.449.816c-.033.324-.065.647-.1.971" transform="translate(181.366 36.785)"/><path d="m353.029 15.107c-2.422 4.666-4.867 9.023-6.983 13.535-3.3 7.032-7.492 13.638-10.048 21.021-.886 2.556-1.311 5.032 1.564 6.719-1.952 1.641-3.048 1.625-4.248-.032a6.7 6.7 0 0 1 -.665-7.01c1.586-3.619 3.088-7.28 4.835-10.823 2.068-4.192 4.481-8.216 6.508-12.428a83.591 83.591 0 0 0 3.98-9.84c1.186-3.562 1.947-3.852 5.057-1.143" transform="translate(129.003 5.167)"/><path d="m289.006 115.093c-2.942 3.819-6.65 4.084-10.442 3.841-3-.193-4.675-4.749-3.656-8.019 1.79-5.741 5.074-10.278 10.678-12.946 3.526-1.677 6.311-.572 7.342 3.156.086.314-.1.705-.262 1.611l-4.588-1.283c-4.021 2.118-7.092 5.724-9.724 9.681-1.5 2.252.16 4.612 2.937 4.467 2.4-.124 4.8-.314 7.716-.508" transform="translate(106.715 37.775)"/><path d="m309.155 52.026c-2.057-1.262-2.416-2.615-2.434-4.962-.04-5.4 3.52-8.98 5.65-13.222 1.33-2.648 3.694-2 5.453 1.275-.454.444-.929.962-1.457 1.419a15.305 15.305 0 0 0 -5.232 10.155 3.22 3.22 0 0 0 .121 1.337c.9 2.755.916 2.751-2.1 4" transform="translate(119.194 12.513)"/><path d="m343.642 111.728a10.062 10.062 0 0 1 .993 1.151c.816 1.436.426 3.249-.862 3.619-1.448.415-2.245-.372-2.772-1.707-.939-2.383.043-4.621.482-6.857.7-3.576 1.7-7.1 2.661-11.019a2.52 2.52 0 0 1 3.466.676 7.714 7.714 0 0 1 .44 5.485c-1.45 2.815-2.876 5.642-4.407 8.651" transform="translate(132.363 37.504)"/><path d="m323.03 27.406c-3.76 1.055-8.023-.928-8.861-3.8-.343-1.175-.465-2.368.735-2.823a3.2 3.2 0 0 1 2.5.669 42.861 42.861 0 0 1 4.32 3.888 10.917 10.917 0 0 1 1.3 2.066" transform="translate(121.998 8.047)"/><path d="m350.4 90.8c-2.6.66-4.276-.639-5.695-2.115a1.98 1.98 0 0 1 .408-3.176 2.684 2.684 0 0 1 2.477.485c1.244 1.216 2.915 2.3 2.809 4.806" transform="translate(133.716 33.177)"/><path d="m563.332 111.64a16.108 16.108 0 0 1 -.365-3.831c.161-.935 1.121-2.116 2.068-1.23a5.533 5.533 0 0 1 1.209 3.462c.026.36-1.452.828-2.912 1.6" transform="translate(218.755 41.296)"/></g></svg>