<svg height="295.037" viewBox="0 0 777.708 295.037" width="777.708" xmlns="http://www.w3.org/2000/svg" xmlns:xlink="http://www.w3.org/1999/xlink"><clipPath id="a"><path d="m0 0h777.709v295.037h-777.709z"/></clipPath><g clip-path="url(#a)" fill="#fff" stroke="#fff" stroke-width=".5"><path d="m38.637 89.856c-5.081 2.775-9.319 5.116-13.586 7.4-1.136.609-2.357 1.443-3.548 1.459a4.371 4.371 0 0 1 -3.326-1.487c-.451-.708.045-2.448.674-3.344 3.646-5.2 8.827-8.677 14.229-11.729 3.908-2.207 5.761-4.863 5.937-9.644.386-10.477 1.614-20.923 2.476-31.384a13.9 13.9 0 0 0 -.292-2.263c-13.69 5.47-27.147 10.671-37.121 24.024l15.239-.577c.1.331.206.661.309.991-.722.531-1.4 1.433-2.173 1.529-4.269.521-8.555 1.049-12.845 1.145-2.054.044-4.394-.976-4.602-3.353-.117-1.338 1-2.976 1.943-4.182 5.877-7.515 14.2-11.527 22.571-15.416q7.124-3.312 14.418-6.26a5.052 5.052 0 0 0 3.281-4.789c.31-4.512.712-9.2-1.55-13.262-2.434-4.369-.508-8.168-.135-12.344 4.3.062 4.974 2.782 5.162 5.364.476 6.562.635 13.147.92 19.723.015.359.027.719.069 1.828 4.073-.672 8.074-1.116 11.966-2.022a58.7 58.7 0 0 1 23.482-.3c6.743 1.158 9.385 7.657 5.45 13.189-2.9 4.078-5.878 8.11-9 12.021a42.334 42.334 0 0 1 -4.672 4.345c6.267-.347 12.025-1.188 17.705-.813a45 45 0 0 1 13 3.329c5.676 2.2 7.247 6.967 4.07 12.1a31.723 31.723 0 0 1 -6.326 6.855c-9.662 8.411-21.009 14.131-32.362 19.811-.828.414-1.87 1.043-2.618.844-1.461-.389-3.567-.978-4-2.051-.845-2.093 1.365-2.933 2.933-3.234 8.326-1.6 15.082-6.517 22.236-10.509a93.224 93.224 0 0 0 12.426-8.65c2.9-2.309 6.511-5.058 5.895-9.035s-5.224-4.548-8.483-5.572a28.433 28.433 0 0 0 -9.941-1.241c-9.4.54-18.372 1.689-25.683 9.277-4.944 5.131-11.631 8.6-17.62 12.7-2.124 1.452-3.154 3.326-2.674 5.73.988 4.946 2.152 9.859 3.372 14.754.428 1.72 1.115 3.4-1.067 4.293-2.006.821-3.986-.525-4.356-3.018-.466-3.145-.723-6.32-1.067-9.483-.218-2.015-.428-4.029-.716-6.751m3.542-13.593c9.1-4.808 17.423-8.347 24.76-13.341 6.806-4.632 12.015-11.32 16.334-18.443 4.609-7.6 3.26-10.14-5.672-11.281-10.763-1.374-21.09.626-31.459 3.8-1.3 12.861-2.569 25.439-3.964 39.271m1.881 5.4 5.741-4.902-.764-.842c-2.051 1.518-5.312 1.6-4.975 5.736m-5.086 3.008-.83-1.446c-2.483.517-4.515 1.676-5.017 5.1l5.847-3.65" transform="translate(0 2.573)"/><path d="m463.036 44.5-23.224.877c-.357 3.322-.625 6.059-.949 8.788-.573 4.822-1.123 9.647-1.789 14.455-.488 3.519-2.482 6.072-6.02 6.539-3.636.48-6.491-1.377-8.481-4.45a3.224 3.224 0 0 1 -.432-2.591c1.313.679 2.622 1.363 3.938 2.036 3.086 1.575 4.958 1.141 6.42-1.935a19.684 19.684 0 0 0 1.659-5.942c.619-4.991.985-10.014 1.5-15.449-6.68.253-13.023.545-19.37.717-6.548.178-11.394 2.524-16.214 7.614a52.557 52.557 0 0 1 -25.666 14.481 18.5 18.5 0 0 1 -12.042-1.348c-4.509-2-6.453-8.766-4-14.345 1.331-3.022 3.689-5.593 5.585-8.367.611-.893 1.857-1.892 1.728-2.66-.781-4.627 2.346-4.258 5.364-5.145a60.525 60.525 0 0 1 18.275-2.832c5.94.107 11.618.719 14.818 6.963.5.981 2.478 1.734 3.752 1.707 9.215-.194 18.424-.613 27.9-.973.608-7.262.866-13.775 1.8-20.19a41.745 41.745 0 0 1 3.434-11.794c2.111-4.449 5.935-5.137 10.46-2.93 9.2 4.487 15.006 12.258 20.147 20.672.306.5.01 1.369-.011 2.259-3.323-.472-4.544-2.773-5.847-5.051a30.85 30.85 0 0 0 -14.562-13.566c-3.27-1.426-4.8-1.207-6.619 1.748a15.649 15.649 0 0 0 -2.35 5.681c-1 7.012-1.685 14.072-2.493 21.157 7.944 2.243 16.268-3.074 23.411 1.9q-.059.985-.121 1.971m-62.421-1.911c-4.784-4.68-11.248-5.191-16.939-.82-3.514-2.179-6.764-1.12-9.706 1.306a72.848 72.848 0 0 0 -8.632 7.716 15.356 15.356 0 0 0 -3.34 6.9c-1.186 6.041 1.933 9.34 8 9.021a13.294 13.294 0 0 0 2.777-.449 60.336 60.336 0 0 0 25.564-14.578 6.859 6.859 0 0 0 1.4-3.338c.379-1.578.505-3.218.876-5.757" transform="translate(144.293 2.629)"/><path d="m273.39 52.752c-3.552 3.861-6.734 7.175-9.68 10.689-.4.479.379 1.947.8 3.758a45.091 45.091 0 0 0 5.131-3c2.8-2.2 5.372-4.683 8.155-6.9a7.716 7.716 0 0 0 2.91-6.945 8.955 8.955 0 0 1 .151-3.354 3.181 3.181 0 0 1 2-1.606 2.058 2.058 0 0 1 1.772 1.009 14.092 14.092 0 0 1 .7 4.815c-.345 4.171 1.391 7.516 3.289 11.072 2.382-3.378 4.059-6.768 6.656-9.159a35.278 35.278 0 0 1 9.5-5.815c3.293-1.474 6.927-2.191 11.453-3.555a70.275 70.275 0 0 0 7.117-18.7c1.685-7.491 3.73-14.9 5.509-22.375.574-2.41 2.109-3.02 4.161-2.533 1.956.463 2.342 2.715 1.453 4.942-1.86 4.668-3.736 9.351-5.177 14.156-2.092 6.967-3.837 14.04-5.652 21.087a19.692 19.692 0 0 0 -.379 3.9c-.265 5.378-.253 5.378 2.429 9.2-4.324 5.277-3.6 14.432 1.543 19.707 1 1.019 1.975 2.054 3.076 3.2-4.119 1.954-5.8 1.4-7.4-2.674a43.82 43.82 0 0 1 -3.272-18.17c.093-2 1.213-4.6-2.151-5.978-2.787 3.827-5.534 7.745-8.444 11.537a42.664 42.664 0 0 1 -5.229 5.841c-4.263 3.825-7 3.619-11.761.136-3.434-2.513-7.776-3.932-9.239-8.715-4.209 3.4-8.193 6.623-12.188 9.835a10.7 10.7 0 0 1 -1.839 1.292c-2.537 1.273-6.177.887-7.9-.776a7.3 7.3 0 0 1 -.936-8.788 36.858 36.858 0 0 1 6.719-7.471c1.942-1.569 4.56-1.24 6.731.334m39.966-4.4c-7.801 1.552-13.474 4.552-17.544 10.275-1.438 2.02-1.979 4.384-.136 6.188 2.058 2.012 4.3.643 5.968-.959 4.459-4.276 8.731-8.732 11.7-15.5" transform="translate(104.544)"/><path d="m214.4 95.629c-2.269 3.795-4.433 4.139-7.3 3.285-2.952-6.744-1.108-14-1.9-20.958-.331-.178-.654-.51-.9-.458-5.742 1.226-7.23-.053-6.574-5.773.889-7.759 3.646-14.9 7.109-21.838 1.961-3.928 3.585-8.023 5.846-13.137-21.548 4.38-40.119 12.541-59.089 23.024q2.346.87 4.69 1.738l-.783 1.651c-3.616.136-7.244.47-10.845.288-1.057-.053-2.04-1.574-3.535-2.82 3.5-2 6.131-3.737 8.954-5.062 16.1-7.564 32.506-14.458 49.625-19.356 7.533-2.155 15.2-4.447 23.241-3.862a25.619 25.619 0 0 1 5.538.827 10.023 10.023 0 0 1 6.523 13.364 48.407 48.407 0 0 1 -11.138 16.077 72.666 72.666 0 0 1 -11.389 9.063c-3.375 2.227-3.851 5.4-3.922 8.75a68.713 68.713 0 0 0 .72 9.553c.317 2.674-.379 6.166 5.123 5.643m-4.294-26.918c5.208-2.42 13.189-9.423 17.038-14.6 2.464-3.314 4.638-6.747 5.431-10.926.389-2.047.1-3.6-1.595-4.965-4.4-3.545-9.463-3-14.481-2.332-.766.1-1.7 1.468-1.967 2.416a118.233 118.233 0 0 0 -4.426 30.407m-8.6 4.664c3.306.5 4.643-1.014 4.9-3.6.482-4.864.82-9.741 1.219-14.613-3.39 5.739-6.432 11.432-6.117 18.211" transform="translate(56.988 13.027)"/><path d="m405.495 141.089c.434 2.9 1.289 5.1.967 7.125-.931 5.875 2.211 10.178 5.227 14.417 2.253 3.17 5.173 3.531 8.287 1.012 5.831-4.717 11.443-9.741 12.285-17.972.087-.854.765-1.647 1.419-2.975l6.653 2.947c-4.255 5.909-7.975 11.213-11.862 16.393a34.564 34.564 0 0 1 -4.678 4.853c-4.665 4.171-10.29 3.783-14.293-1.126a50.579 50.579 0 0 1 -4.174-6.671c-.925-1.593-1.7-3.274-2.921-5.656-3.762 3.4-7.022 6.712-10.651 9.55q-9.478 7.419-19.367 14.3a13.721 13.721 0 0 1 -5.818 1.89c-6.341.9-11.04-2.419-12.385-8.7-1.258-5.868-.275-11.569 1.821-17.1 1.461-3.854 3.053-7.658 4.654-11.65 5.141-1.077 9 2.023 10.937 9.41a26.009 26.009 0 0 1 -4.259-1.732 25.877 25.877 0 0 1 -3.39-3.065 35.085 35.085 0 0 0 -6.359 21.834c.206 6.57 5.309 8.931 10 6.774 4.224-1.941 8.59-3.936 12.2-6.789 6.594-5.219 12.719-11.037 18.932-16.723 1.634-1.5 3.112-3.251 2.62-5.9-.453-2.437 1.431-3.146 4.157-4.45" transform="translate(142.811 56.978)"/><path d="m486.826 159.062c-1.986 5.222-4.094 10.405-5.87 15.7a6.14 6.14 0 0 0 .633 4.148c.865 1.767.452 3.312-1.053 3.663-.97.226-2.965-.981-3.364-1.995a7.55 7.55 0 0 1 .067-4.873c2.033-5.812 4.293-11.548 6.557-17.276 4.195-10.612 8.451-21.2 12.814-32.124 2.573.664 5.509.653 6.267 4.617-6.7 1.61-7.148 7.709-9.851 13.841 4.905-2.436 8.75-4.584 12.782-6.3 7.425-3.156 14.978-6.008 22.435-9.09a6.78 6.78 0 0 1 6.441.479c.907.559 1.32 1.919 2.4 3.615-10.932-.855-19.5 3.538-28.259 7.57-4.612 2.121-9.059 4.276-13.014 7.519-5.83 4.781-5.794 10.36.354 15.081a81.77 81.77 0 0 0 19.2 10.561c2.086.852 3.841 2.712 5.461 4.388.466.482-.067 1.93-.143 2.937a7.115 7.115 0 0 1 -2.558-.371c-6.431-3.776-12.682-7.878-19.243-11.412a28.118 28.118 0 0 1 -10.6-10.482l-1.46-.2" transform="translate(192.554 51.008)"/><path d="m264.013 183.343-6.344-.588c3.5-9.534 6.692-18.214 10.167-27.668l5.533 3.522c-1.384 2.075-2.474 3.706-3.562 5.336l.383.581c1.421-.952 2.886-1.842 4.252-2.862 15.692-11.725 32.548-20.784 52.556-22.132a148.543 148.543 0 0 1 19.1.076c3.963.244 4.487 1.623 3.653 6.518-8.263-4.72-17.033-2.766-25.683-2.066-3.157.254-6.257 1.15-9.41 1.519-10.833 1.273-19.273 7.8-28.474 12.708a50.446 50.446 0 0 0 -19.252 18.206c-1.158 1.85-1.752 4.053-2.921 6.851" transform="translate(104.059 56.239)"/><path d="m202.875 173.551c3.734-5.35 7.331-10.8 11.242-16.019 4.039-5.388 8.4-10.53 12.58-15.813 1.176-1.488 2.179-3.315 4.477-2.61 2.5.765 2.537 2.93 2.6 5.2-7.293 2.9-11.488 9.1-15.913 14.98-7.984 10.609-15.57 21.524-23.776 31.954-8.78 11.157-18.085 21.905-27.15 32.842-.838 1.009-1.6 2.085-2.551 3.337l2.01 2.013c-2.417 2.718-4.717 5.593-7.329 8.149-2.038 1.995-2.211 1.819-6.173-.953 2.975-4.254 5.684-8.746 8.994-12.739 7.294-8.8 14.966-17.288 22.345-26.022 5.681-6.724 11.183-13.6 16.683-20.481a23.843 23.843 0 0 0 2.107-3.945z" transform="translate(61.745 56.116)"/><path d="m216.935 69.619c1.126-10.776.463-21.2 3.9-32.208 2.291 1.647 3.974 2.86 5.027 3.616-1.388 3.077-2.511 5.565-3.636 8.051l1.014.806c5.332-7.909 14.069-9.375 22.054-12.277 2.242-.816 4.4-1.878 6.67-2.591a11.064 11.064 0 0 1 10.978 2.377c3.216 2.679 3.585 6.124 2.433 9.691-1.929 5.973-7.081 9.08-12.034 12.069-2.342 1.414-6.01-.532-6.657-3.411a21.389 21.389 0 0 1 -.145-7.71c.355-2.361 1.5-4.6 2.305-6.9-8.485-1.136-22.754 6.48-25.06 17.8-.449 2.207-1.033 4.386-1.544 6.58-.505 2.165-1.6 3.7-5.3 4.109m40.584-25.611c-4.995.091-7.271 2.643-7.4 7.522-.077 2.941 2.113 4.554 4.255 2.759a36 36 0 0 0 6.943-7.916c.844-1.3.623-3.671.154-5.35-.715-2.569-2.57-2.791-4.772-1.346.275 1.459.505 2.674.818 4.332" transform="translate(87.608 13.913)"/><path d="m217.482 179.936a9 9 0 0 1 -9.083-10.664c.914-5 3.719-8.906 7.016-12.525 1.11-1.22 2.537-2.144 3.736-3.291 2.148-2.055 4.31-3.292 7.518-2.064 2 .765 4.356.54 6.51.974 8.429 1.7 10.873 8.5 4.9 14.735-5.154 5.38-11.131 9.9-18.414 12.26-.879.284-1.789.472-2.18.574m10.789-20.827c-2.194-.049-4.958-2.128-6.2 1.819l3.439 3.824c-4.085 2.1-5.674-1.512-7.949-2.482-3.57 1.919-4.147 5.394-4.619 8.665-.577 3.991 2.664 6.226 6.508 4.675a36.48 36.48 0 0 0 16.047-11.916 6.384 6.384 0 0 0 1.207-6.183c-2.142-.654-4.554-1.393-6.99-2.138-.611 1.575-1 2.582-1.45 3.736" transform="translate(84.1 60.942)"/><path d="m439.9 139.688c6.983-.1 13.4 4.725 14.826 10.481.87 3.5-.733 6.319-3.139 8.544a40.635 40.635 0 0 1 -15.225 8.947 11.735 11.735 0 0 1 -9.726-1.3c-1.169-.686-2.512-2.152-2.622-3.369-.371-4.1-.33-8.357 2.676-11.665 1.871-2.061 4.193-3.706 6.239-5.617 1.311-1.227 2.392-2.708 3.751-3.872a24.643 24.643 0 0 1 3.22-2.146m-6.114 24.124a29.046 29.046 0 0 0 15.668-9.358 4.6 4.6 0 0 0 .813-1.457c1.459-3.856-1.1-7.23-5.176-6.569-2 .324-3.868 1.8-5.84 1.9-5.978.324-8.881 4.331-11.05 8.962-2.137 4.567-.463 6.7 5.585 6.518" transform="translate(171.173 56.412)"/><path d="m97.492 42.871c5.443 2.066 7.478-5.443 12.889-3.678 2.5 3.5 6.081 7.139 2.434 11.794-3.515 4.485-7.315 9.122-14.2 7.675-3.8 7.661-2.5 11.25 4.6 12.689.392 1.958-.605 2.7-2.409 2.876-4.252.411-8.716-3.491-8.818-8.377a37.692 37.692 0 0 1 1.377-9.371c.515-2.152 1.81-4.1 2.482-6.234.661-2.1.977-4.3 1.641-7.374m12.295 1.8c-4.857 1.176-6.814 5.114-9.423 9.879 5.851-1.523 8.732-4.586 9.423-9.879" transform="translate(37.149 15.718)"/><path d="m251.686 158.9c.376-1.617.639-3.271 1.161-4.839.591-1.773 1.876-2.893 3.851-2.4 1.942.486 3.013 2.124 2.2 3.841-2.01 4.254-.576 8.339-.051 12.639l3.8 1.612c-.7 1.161-1.029 2.469-1.8 2.841-2.813 1.348-4.652-.357-7.591-7.032-1.807 1.759-3.431 3.451-5.173 5.013-3.021 2.712-5.5 2.839-7.85.529-2.735-2.683-3.091-6-.738-8.9s4.874-5.638 7.492-8.641c3.3.2 4.609 2.332 4.835 5.474-5.078.462-7.585 3.01-7.789 8.735 3.105-3.024 6.768-4.627 7.652-8.872" transform="translate(96.089 61.201)"/><path d="m452.556 166.375c-.295-1.468-1.249-3.218-.765-4.356a126.1 126.1 0 0 1 6.038-11.926 9.126 9.126 0 0 1 6.946-5.082c3.883-.521 7.727-1.374 11.618-1.773 1.426-.146 2.942.6 4.417.932l-.034 1.147a7.913 7.913 0 0 1 -2.3.953c-10.786.75-16.984 7.47-21.618 16.352a33.233 33.233 0 0 1 -2.959 4.082l-1.348-.33" transform="translate(182.4 57.839)"/><path d="m197.723 168.867c-3.321 1.633-6.621 3.313-9.969 4.887-7.057 3.319-11.75 1.883-15.315-5.166-2.441-4.824-4.374-9.914-6.326-14.965-.351-.91.312-2.211.507-3.331a15.483 15.483 0 0 1 3.783 1.532c.539.393.26 1.766.6 2.6 1.9 4.665 3.541 9.48 5.92 13.892 2.219 4.116 4.606 4.623 8.99 2.847 2.6-1.054 5.093-2.382 7.61-3.633 1.9-.943 3.178-.364 4.042 1.46.013-.013.16-.118.16-.118" transform="translate(67.044 60.695)"/><path d="m553.44 169.595-2.819-3.642c.769-.594 1.689-1.788 2.277-1.644a4.119 4.119 0 0 1 2.418 2.146c.212.479-.866 1.527-1.875 3.139" transform="translate(222.366 66.351)"/></g></svg>