<svg height="210.882" viewBox="0 0 761.5 210.882" width="761.5" xmlns="http://www.w3.org/2000/svg" xmlns:xlink="http://www.w3.org/1999/xlink"><clipPath id="a"><path d="m0 0h761.5v210.882h-761.5z"/></clipPath><g clip-path="url(#a)" fill="#fff" stroke="#fff" stroke-width=".5"><path d="m97.491 7.985c-3.076 3.426-5.758 6.416-8.445 9.4-1.462 1.626-2.96 3.218-4.385 4.874-2.071 2.407-4.025 4.917-6.145 7.278-5.791 6.45-11.466 13.019-17.521 19.213-6.36 6.509-13.062 12.688-19.7 18.917a121.146 121.146 0 0 1 -10.215 8.862c-3.794 2.835-7.916 5.272-12.756 5.992-5.948.886-10.87-1.848-14.033-6.724-3.638-5.607-4.371-11.945-4.285-18.41.114-8.371 2.519-16.287 5.094-24.155q3.392-10.371 6.646-20.786a33.533 33.533 0 0 0 .754-4.622l3 .36c.654 1.04 1.267 1.932 1.792 2.873.7 1.248.417 2.086-1.1 2.231-1.315.126-1.671.825-2.019 1.778-1.1 3-2.256 5.979-3.266 9.008-1.494 4.48-2.759 9.039-4.346 13.485a65.829 65.829 0 0 0 -3.552 17.441 45.623 45.623 0 0 0 1.041 14.4c1.294 5.226 6.487 10.038 11.778 10.589a11.687 11.687 0 0 0 5.139-.931 42.348 42.348 0 0 0 13.02-8.281q10.788-9.677 21.085-19.909c5.148-5.1 10-10.51 14.867-15.884 4.95-5.461 10-10.86 14.567-16.63 4.22-5.326 9.148-10.127 12.462-16.163.282-.516.942-.825 1.469-1.264 2.35 1.183 2.65 3.308 2.7 5.381.165 6.925.422 13.86.2 20.779a52.933 52.933 0 0 0 1.8 14.606 74.211 74.211 0 0 0 2.988 8.762 8.8 8.8 0 0 0 3.945 4.71c1.892 1.063 2.481 1.279 3.992-.3a43.621 43.621 0 0 0 4.38-5.366q7.507-10.872 14.849-21.856c1.834-2.748 3.444-5.647 5.145-8.483a8.872 8.872 0 0 0 1.407-6.3c-.165-.914-.212-1.942.962-2.081a3.069 3.069 0 0 1 1.943.741 3.076 3.076 0 0 1 1 4.34c-1.567 2.885-2.825 5.963-4.612 8.7-3.337 5.1-7 9.993-10.447 15.029-1.533 2.241-2.746 4.7-4.305 6.925-2.629 3.746-5.371 7.415-8.159 11.044-1.552 2.019-3.143 2.3-5.562 1.364a12.12 12.12 0 0 1 -6.316-6c-2.224-4.138-3.268-8.657-4.134-13.184a133.654 133.654 0 0 1 -2.273-29.548 12.928 12.928 0 0 0 -.449-2.2" transform="translate(0 .216)"/><path d="m233.569 188.407c-2.171-2.227-1.958-2.153-1.123-4.58a86.5 86.5 0 0 0 2.342-8.939c1.326-5.8 2.481-11.637 3.873-17.42 1.161-4.813 2.568-9.566 3.845-14.352.195-.727.28-1.483.459-2.467-.715-.206-1.308-.4-1.911-.546a3.665 3.665 0 0 1 -3.088-3.752 27.77 27.77 0 0 1 .85-7.173 68.027 68.027 0 0 1 8.152-18.394 3.966 3.966 0 0 0 .315-.91c-4.192.5-17.575 6.739-21.908 10.277l4.488.836c-.343.635-.482 1.342-.828 1.463-3.412 1.2-6.844 2.346-10.3 3.395-1.18.358-2.59.408-3.1-1.058-.443-1.282.285-2.322 1.356-3.1a86.41 86.41 0 0 1 18.593-10.594c4.684-1.885 9.382-3.731 14.046-5.661a4.4 4.4 0 0 0 1.761-1.412c1.551-2.117 2.949-4.344 4.522-6.441.469-.625 1.444-1.458 1.974-1.327 1.072.264 2.445.785 2.267 2.368-.141 1.253-.477 2.483-.76 3.882a54.631 54.631 0 0 1 6.46.548 14.561 14.561 0 0 1 4.481 1.858 5.193 5.193 0 0 1 2.5 5.087 19.79 19.79 0 0 1 -3.745 10.372 64.449 64.449 0 0 1 -6.805 8.437 38.014 38.014 0 0 1 -12.566 8.9 7.516 7.516 0 0 0 -5.1 6.185c-1.027 5.386-2.656 10.654-3.85 16.012-1.293 5.8-2.383 11.646-3.543 17.475-.107.535-.324 1.269-.078 1.62 2.1 2.963-.963 5.3-1.005 8.008-.007.5-1.734.97-2.574 1.4m13.805-53.004a42.494 42.494 0 0 0 18.726-15.3 34.3 34.3 0 0 0 3.655-8.13c1.093-3.152.149-4.626-2.883-5.936-1.818-.785-3.641-.469-5.482-.491a3.954 3.954 0 0 0 -4.018 2.711 151.145 151.145 0 0 0 -7.5 19.323c-.687 2.394-1.516 4.749-2.5 7.814m-5.072 1.93a10.464 10.464 0 0 0 2.241-1.835 12.935 12.935 0 0 0 1.266-3.039q3.891-11.57 7.729-23.158a4.792 4.792 0 0 0 .057-1.316l-.718-.274c-2.095 3.412-4.425 6.707-6.219 10.27a78.352 78.352 0 0 0 -4.368 10.94c-.82 2.518-1.5 5.226.012 8.413" transform="translate(50.327 22.473)"/><path d="m448.716 24.371c4.927-3.152 9.391-6.136 14-8.884a21.221 21.221 0 0 1 5.525-2.074c3.085-.805 5.226 1.447 4.359 4.533-.593 2.114-1.453 4.152-2.091 6.254-.526 1.733-.9 3.513-1.451 5.71-1.028.8-2.032.307-2.661-1.221-.77-1.871-.294-3.7.428-5.456.752-1.828 1.632-3.6 2.751-6.043a23.683 23.683 0 0 0 -3.5.435c-4.205 1.259-7.432 4.166-10.875 6.682-2.392 1.748-4.712 3.6-7 5.489-1.325 1.1-2.476 2.4-3.775 3.529-.733.637-1.576 1.489-2.425 1.558a3.838 3.838 0 0 1 -2.84-1.065c-.656-.736-.654-1.8.385-2.851a48.8 48.8 0 0 0 5.935-7.064c1.053-1.574 1.432-3.624 1.972-5.5a7.341 7.341 0 0 0 -.312-2.37c-2.783 1.241-5.051 2.069-7.142 3.218-7.284 4-13.1 9.809-18.814 15.71a51.185 51.185 0 0 0 -3.413 4.343 2.589 2.589 0 0 1 -3.495.656c-1.5-.834-1.016-2.029-.528-3.155a3.972 3.972 0 0 1 1.039-1.229 43.164 43.164 0 0 0 11.24-15.322c.847-2.044 1.689-4.332.746-6.871-3.095-1.161-6.041.1-8.833 1.1-2.869 1.025-5.466 2.791-8.25 4.085-5.869 2.727-9.709 7.692-13.759 12.4-.892 1.039-1.231 2.553-2.006 4.245-2.313.7-2.468.625-3.935-2.335 2.146-2.664 4.262-5.275 6.36-7.9 4.092-5.12 9.588-8.35 15.319-11.191a53.207 53.207 0 0 1 8.562-3.387 12.984 12.984 0 0 1 5.494-.265 5.325 5.325 0 0 1 4.229 6.955c-.545 1.9-1.176 3.77-1.963 6.272 1.05-.618 1.646-.91 2.178-1.293 4.44-3.192 8.489-7.011 13.914-8.608a19.429 19.429 0 0 1 2.553-.676 2.935 2.935 0 0 1 3.636 2.46 21.4 21.4 0 0 1 -.216 5.516 18.557 18.557 0 0 1 -1.349 3.6" transform="translate(91.076 2.328)"/><path d="m285.54 27.874c3.4-3.181 6.44-6 9.453-8.857 2.416-2.289 4.435-1.833 5.194 1.442a38.009 38.009 0 0 1 .5 6.194c.136 2.206.224 4.372 1.584 6.316 1.642 2.347 2.144 2.656 4.916 2.061.957-.2 1.91-.439 2.824-.65 1.9-8.143 7.327-13.078 14.674-16.2a6.93 6.93 0 0 1 3.532-.4 4.62 4.62 0 0 0 3.947-.861 2.781 2.781 0 0 1 2.632.152 3.006 3.006 0 0 1 .919 2.513c-.736 3.53-1.738 7-2.6 10.508-.316 1.283-.525 2.594-.747 3.9-.289 1.694-.3 3.313 1.537 4.153-.46 1.543-1.256 2.272-2.711 2.093-1.687-.208-2.161-1.525-2.169-2.847a44.989 44.989 0 0 1 .534-5.228c.168-1.5.334-3.01.577-5.2-1.039 1-1.637 1.509-2.165 2.085q-4.239 4.62-8.45 9.265c-3.424 3.767-7.4 2.847-9.065-1.856a46.629 46.629 0 0 1 -5.935 1.226c-2.356.19-4.056-.9-5.28-3.126-1.613-2.937-1.868-6.012-1.864-9.214 0-.942-.173-1.884-.321-3.381-5.493 5.363-10.822 10.066-13.639 16.833-.586 1.406-1.254 2.622-3.611 1.913-.149-.854-.773-2.1-.468-3.046 2.439-7.534 4.666-15.177 7.758-22.448 1.953-4.6 5.2-8.659 8.036-12.85.692-1.019 2.038-1.589 3.083-2.364l3 1.675a38.568 38.568 0 0 0 -4.687 3.932 38.838 38.838 0 0 0 -3.412 5.238c-1.041 1.679-2.119 3.342-3.038 5.087a51.959 51.959 0 0 0 -2.61 5.671c-.725 1.9-1.208 3.9-1.923 6.273m44.094-6.493c-.936-.306-1.148-.451-1.338-.427-7.062.908-10.966 5.789-14.182 11.44a5.475 5.475 0 0 0 -.352 2.9 1.354 1.354 0 0 0 2.166 1.014 12.709 12.709 0 0 0 2.272-1.9c2.425-2.542 4.845-5.091 7.179-7.716 1.436-1.616 2.711-3.375 4.254-5.317" transform="translate(65.216)"/><path d="m490.73 120.063c3.492-2.267 6.25-4.194 9.154-5.867a6.3 6.3 0 0 1 3.455-.595c2.16.169 3.282 1.662 3.062 3.886-.149 1.5-.523 2.979-.918 5.128 1.562-1.231 2.672-2.111 3.787-2.984 2.684-2.1 5.34-4.241 8.072-6.279a13.965 13.965 0 0 1 3.152-1.712 3.03 3.03 0 0 1 4.3 3.424 24.885 24.885 0 0 1 -1.679 4.884 12.909 12.909 0 0 0 -.978 7.987c.533 2.288 2.048 3.055 4.166 2.043 1.288-.617 2.044-.264 3.122.6-.577.447-1.039.865-1.555 1.192-4.246 2.683-7.714 1.321-9.027-3.562a9.655 9.655 0 0 1 .29-6.158c.81-2.1 1.374-4.3 2.25-7.119a47.857 47.857 0 0 0 -10.77 7.325c-2.24 2.081-4.275 4.379-6.487 6.493-1.194 1.141-2.387 2.078-2.7 3.951-.248 1.5-1.924 1.734-3.226 1.569-2.009-.255-2.6-2.15-.993-3.577 2.605-2.315 3.847-5.372 5.057-8.437a32.082 32.082 0 0 0 1.12-5.213c-3.048-.525-4.75 1.37-6.527 2.568-4.828 3.254-8.833 7.483-12.794 11.721a42.59 42.59 0 0 0 -3.174 3.741c-.9 1.214-1.618 2.556-2.55 4.057-2.947.682-2.947.682-4.131-2.245 2.742-2.944 5.587-5.967 8.4-9.022a25.316 25.316 0 0 0 6.245-10.719c.538-2.055-.192-2.949-2.346-2.709a9.564 9.564 0 0 0 -2.722.957c-1.691.761-3.369 1.557-5.019 2.4-4.877 2.49-7.978 6.545-10.288 11.32 1.121 1.247 3.507.945 2.947 3.482a13.269 13.269 0 0 1 -2.061.419c-4.6.242-5.638-1.278-4-5.5 2.339-6.041 7.216-9.613 12.42-12.8a39.632 39.632 0 0 1 6.63-2.9 11.133 11.133 0 0 1 2.927-.447c4.388-.4 5.523 2.509 4.325 6.194-.192.595-.433 1.174-.931 2.509" transform="translate(108.506 25.997)"/><path d="m277.062 1.93c3.487 1.523 3.643 1.955 2.007 4.613-.809 1.312-1.655 2.609-2.361 3.978-.841 1.633-1.55 3.335-2.516 5.442 2.8-.228 5.172-.326 7.517-.633a62.223 62.223 0 0 1 14.759-.4 4.09 4.09 0 0 1 2.208.946 1.873 1.873 0 0 1 .186 1.76 2.15 2.15 0 0 1 -1.554.8 7.919 7.919 0 0 1 -1.921-.365 17.171 17.171 0 0 0 -3.888-.56c-5.6.387-11.182.945-16.775 1.4a2.323 2.323 0 0 0 -2.228 1.642c-3.055 8.547-5.673 17.168-4.489 26.435.012.095.125.179.472.651 3.666-.353 5.651-4.2 9.723-5.362a15.35 15.35 0 0 1 -1.53 2.647c-1.563 1.692-3.285 3.239-4.861 4.922a3.4 3.4 0 0 1 -4.188.933 4.1 4.1 0 0 1 -2.641-3.449c-.565-4.806.273-9.471 1.243-14.1.944-4.5 2.275-8.913 3.545-13.783-14.886 1.453-29.75 2.553-44.47 6.278l1.008 1.928c-2.951 1.731-5.992-.564-8.839.748a12.136 12.136 0 0 1 -1.729-2.095 1.946 1.946 0 0 1 1.621-2.914c8.791-1.437 17.563-3 26.379-4.27 5-.72 10.078-.962 15.121-1.42 3.384-.307 6.77-.6 10.152-.93a3.1 3.1 0 0 0 3.052-2.861 27.663 27.663 0 0 1 1.935-5.251c.938-2.2 1.979-4.354 3.067-6.73" transform="translate(50.321 .451)"/><path d="m181.1 6.58c-.942.088-1.7.163-2.455.225-.7.058-1.819-.162-2.039.189-1.843 2.94-4.245 5.615-5.122 9.855 1.171-.664 1.885-.988 2.511-1.436 5.175-3.7 10.317-7.444 15.5-11.125a5.271 5.271 0 0 1 5.645-.188 1.8 1.8 0 0 1 .789 1.523c-.11.491-.871 1.222-1.305 1.194-4.6-.3-7.768 2.721-11.046 5.041a109.093 109.093 0 0 0 -12.307 10.331c-1.5 1.436-2.235 3.775-3.022 5.816a2.977 2.977 0 0 0 1.338 3.463 47.03 47.03 0 0 0 5.582 3.48 45.648 45.648 0 0 0 5.505 2.106c3.036 1.069 4.5 3.289 5.025 7.032-2.436-1.324-4.419-2.474-6.467-3.492-2.071-1.03-4.237-1.869-6.307-2.9-2.143-1.066-4.22-2.264-6.75-3.635l-1.965 10.722c1.943 1.332 2.194 1.949 1.416 3.313-.868 1.521-2.585 1.773-3.448.3a6.255 6.255 0 0 1 -.9-3.688c.577-4.23 1.447-8.418 2.208-12.621a2.845 2.845 0 0 0 .147-.644c-.336-4.615 2.451-8.3 3.759-12.423a122.344 122.344 0 0 1 4.732-11.968 12.716 12.716 0 0 1 2.725-3.677 2.625 2.625 0 0 1 2.3-.665c1.5.775 3.2 1.507 3.953 3.876" transform="translate(37.655 .611)"/><path d="m331.37 103.289c3.506-1.185 4.1-.63 4.645 3.883.973-.067 1.955-.211 2.932-.186a4.843 4.843 0 0 1 5.086 5.525 19.711 19.711 0 0 1 -6.994 14c-1.638 1.459-3.1 3.12-4.737 4.575-.861.764-2.007 1.2-2.9 1.939a3.9 3.9 0 0 0 -1.436 1.944c-1.132 6.252-2.455 12.493-1.943 19.114l1.737.8a2.544 2.544 0 0 1 -2.814 2.63 3.525 3.525 0 0 1 -2.594-3.739c.746-5.663 1.468-11.33 2.318-16.978.587-3.9 1.369-7.771 2.066-11.656.078-.432.4-1.035.223-1.263-2.075-2.7-.044-5.1.824-7.3 1.692-4.3 3.708-8.455 3.582-13.279m-1 25.347a28.032 28.032 0 0 0 10.411-13.878 3.606 3.606 0 0 0 -1.027-4.2c-3.778.142-5.229 1.432-6.565 4.856-1.469 3.764-.882 8.032-3.033 11.6-.173.286.1.839.215 1.615" transform="translate(75.274 23.995)"/><path d="m490.985 31.616c-3.471 2.128-4.99 1.525-5.16-1.817a43.651 43.651 0 0 1 .508-6.043c-2.576.248-3.777 2.326-5.457 3.614-3.9 2.994-7.66 6.181-11.584 9.145a5.013 5.013 0 0 1 -6.139-.195 6.5 6.5 0 0 1 -.913-7.3 27.962 27.962 0 0 1 9.528-9c2.362-1.41 4.837-2.634 7.174-4.082a34.788 34.788 0 0 1 11.733-4.213 4.3 4.3 0 0 1 4.454 1.411c1.05 1.3.713 2.682-.062 4-.491.838-1.013 1.657-1.5 2.5-1.267 2.178-2.658 4.3-3.739 6.567-.873 1.831-1.058 3.8 1.156 5.407m-25.56 2.757c9.271-4.948 16.358-11.69 23.277-18.81a7.326 7.326 0 0 0 -3.358.4c-2.669 1.257-5.166 2.9-7.875 4.051a26.387 26.387 0 0 0 -9.964 7.782c-1.337 1.612-2.7 3.453-2.08 6.581" transform="translate(107.776 2.711)"/><path d="m438.987 112.761c-1.062 2.194-.729 3.884.591 5.941 2.13 3.324 5.323 5.494 7.961 8.246 2.2 2.292 4.985 4.046 7.034 6.445a13.327 13.327 0 0 1 3.15 6.36c.232 1.657-1.005 3.777-2.12 5.3a15.747 15.747 0 0 1 -5.331 4.8c-5.036 2.657-9.942 5.568-14.858 8.45-1.03.6-1.771 1.741-2.831 2.249a11.762 11.762 0 0 1 -4.294 1.22 1.919 1.919 0 0 1 -2-2.15c.088-.622 1.023-1.361 1.731-1.622 6.946-2.562 13.719-5.521 19.766-9.808 2.365-1.678 4.235-4.1 6.154-6.338a3.554 3.554 0 0 0 -.028-4.85 41.5 41.5 0 0 0 -3.83-4.51c-3.453-3.236-7.1-6.266-10.552-9.5-1.658-1.552-3.363-3.141-4.083-5.449-1.3-4.166.468-7.378 3.453-9.906a102.989 102.989 0 0 1 8.828-6.318c1.356-.92 2.849-1.637 4.282-2.444 3.207-1.8 6.569.532 8.012 2.556a2.122 2.122 0 0 1 -.058 2.013 2.5 2.5 0 0 1 -1.974.468 4.606 4.606 0 0 1 -1.713-.952c-2.053-1.386-3.66-1.343-5.791.175-2.862 2.037-5.8 3.974-8.559 6.141a21.635 21.635 0 0 0 -2.935 3.486" transform="translate(99.546 22.939)"/><path d="m274.935 130.266c-.649 3-1.7 5.735.036 8.663l5.482-1.5c-1.2 2.762-3.807 4.415-5.951 4.259-2.551-.185-3.908-3.686-3.928-5.8-.016-1.868.326-3.735.4-5.608.086-2.18-.017-4.367.09-6.545.169-3.419.649-6.826 2.431-9.8a4.724 4.724 0 0 1 2.9-1.823 6 6 0 0 0 3.35-1.623c3.569-3.416 7.468-3.793 11.1-1.557a4.573 4.573 0 0 1 2.381 4.377 10.591 10.591 0 0 1 -2.561 6.67c-2.431 2.832-5 5.551-7.617 8.218-2.222 2.266-4.924 3.216-8.114 2.071m.546-3.107c1.581-.162 2.715.038 3.464-.406 4.7-2.793 8.7-6.385 11.014-11.434 1.177-2.561-.6-4.712-3.384-4.262a9.565 9.565 0 0 0 -3.244 1.431c-2.315 1.4-3.458 3.845-5.1 5.856-2.075 2.532-2.061 5.387-2.746 8.815" transform="translate(63.187 25.111)"/><path d="m525.741 13.118a2.267 2.267 0 0 1 -3.086 1.406c-1.477-.507-2.768-.025-4.135.5-2.756 1.067-5.6 1.9-8.34 3.006a48.824 48.824 0 0 0 -5.242 2.7c-1.389.77-1.321 1.9-.546 3.083a7.49 7.49 0 0 0 6.446 3.338c1.914.07 1.914.062 3.455 1.185-5.049 2.433-9.208 1.275-13.152-2.537l-3.883 6.5c.382.444.786.912 1.338 1.551-.567.665-1.1 1.342-1.687 1.965a2.1 2.1 0 0 1 -2.69.5 2.17 2.17 0 0 1 -1.2-2.768 22.478 22.478 0 0 1 2.185-4.8c1.761-2.777 3.635-5.467 4.654-8.643a3.771 3.771 0 0 1 .925-1.335c3.624-3.8 7.289-7.559 10.888-11.383a12.043 12.043 0 0 0 1.846-2.686c1.576-3.039 2.755-3.26 5.735-.627l-9.793 10.119c2.914.076 5.314-1.007 7.719-2.118 1.57-.727 3.031-1.662 5-1.25a4.67 4.67 0 0 1 3.561 2.292" transform="translate(115.102 .525)"/><path d="m354.713 8.415c1.4-1 2.668-1.062 3.72.4a2.274 2.274 0 0 1 -.137 3.254c-1.092 1.182-1.961 2.568-3.393 4.491 5.025-.464 9.322.635 13.63-.635 1.887-.556 2.292-.118 3.137 2.326-1.795 1.9-4.216 1.481-6.44 1.486a79.776 79.776 0 0 1 -8.53-.458 2.52 2.52 0 0 0 -2.921 1.514c-1.382 2.851-2.851 5.662-4.15 8.55a33.339 33.339 0 0 0 -2.235 9.488 10.1 10.1 0 0 0 .318 3.237c.257 1.264.069 2.389-1.321 2.491-1.188.086-2.571-.347-2.577-1.929a18.336 18.336 0 0 1 .461-5.2c1.675-5.671 3.565-11.277 5.467-17.2-3.574.6-7.284 1.222-10.991 1.86-.528.091-1.036.285-1.562.4a2.877 2.877 0 0 1 -3.444-3.539 2.066 2.066 0 0 1 1.749-1.005c5.247 1.426 10.153-1.077 15.255-1.231 2.289-.069 2.157-2.505 2.911-3.92.687-1.288.729-2.919 1.051-4.383" transform="translate(77.909 1.795)"/><path d="m311.436 107.805c5.384 1.652 6.825 5.506 5.726 10.755-1.386 6.619-5.469 11.435-10.009 15.975-2.113 2.114-5.019 2.661-6.9 1.348a8.434 8.434 0 0 1 -2.613-3.234c-1.951-4.135-1.343-8.392-.012-12.539a46.975 46.975 0 0 1 3.4-8.546 19.586 19.586 0 0 1 4.6-4.964c.571-.487 1.9-.324 2.805-.115a16.561 16.561 0 0 1 3 1.319m-6.924 9.3c-1.881-.458-2.551.856-2.985 2.379-.571 2-.946 4.063-1.657 6.007-.8 2.185-.063 4.113.639 6.053.656 1.813 1.187 1.9 2.98 1.278 2.677-.928 4.1-3.252 5.8-5.193 3.094-3.534 5.294-7.564 5.1-12.459a4.692 4.692 0 0 0 -1.048-2.944 5.209 5.209 0 0 0 -8.107.939c-.549.926-.437 2.245-.72 3.94" transform="translate(69.217 24.82)"/><path d="m380.588 122.16a8.32 8.32 0 0 0 -1.217 7.226c.619 2.165 1.542 2.7 4.009 2.709a7.237 7.237 0 0 1 2.1.731 3.54 3.54 0 0 1 -4.215 2.251c-2.166-.321-3.849-1.206-4.713-3.486-1.9-5-.269-9.3 2.393-13.412a61.271 61.271 0 0 0 4.944-8.809 7.956 7.956 0 0 1 3.58-3.549c2.107-1.051 5.784 1.4 6.481 4.132.517 2.016.951 4.1-.294 6.095-1.205 1.932-2.1 4.106-3.54 5.832-3.1 3.718-6.064 3.74-9.523.279m9.587-12.341c-2.025 2.352-3.808 4.247-5.355 6.319a4.958 4.958 0 0 0 -.656 2.83 2.39 2.39 0 0 0 .907 1.875 2.164 2.164 0 0 0 2-.538c1.2-1.535 2.177-3.243 3.234-4.887 1.047-1.625.877-3.268-.132-5.6" transform="translate(87.743 24.655)"/><path d="m120.9 29.931c-.861-1.887-3.022-2.693-2.151-4.913 1.127-2.87 2.71-5.31 5.826-6.258a14.421 14.421 0 0 1 4.523-.86c2.828.095 5.078 1.638 6.939 3.691a12.245 12.245 0 0 1 1.406 2.213c1.451 2.55 1.5 5.218-.449 7.367a98.96 98.96 0 0 1 -8.921 8.622 4.686 4.686 0 0 1 -5.5.609 6 6 0 0 1 -2.88-7.451c.326-1.041.81-2.033 1.211-3.021m8.937-8.34c-3.639 3.7-5.152 8.155-6.878 12.489a1.188 1.188 0 0 0 -.037.654c.154.718.195 1.929.556 2.039a3.639 3.639 0 0 0 2.746-.137 25.692 25.692 0 0 0 8.143-7.986 3.825 3.825 0 0 0 -.759-5.271 18.34 18.34 0 0 0 -3.771-1.789m-5.242 1.8c-2 .611-2.355 1.525-1.757 3.06.481-.836.961-1.673 1.757-3.06" transform="translate(27.683 4.179)"/><path d="m584.744 124.62c-1.742 4.695-.907 7.653 3.064 9.321-.051 1.667-.838 2.379-2.509 1.884-1.426-.424-2.794-1.189-3.154-2.671a37.015 37.015 0 0 1 -1.182-7.354 35.324 35.324 0 0 1 .708-7.146 4.958 4.958 0 0 1 1.472-2.45c1.385-1.354 3.207-2.271 3.826-4.344a1.632 1.632 0 0 1 1.264-.905c1.977.143 3.22-1.148 4.684-2.082a14.1 14.1 0 0 1 3.269-1.558c2.165-.688 4-.123 5.029 1.354 1.6 2.3 1.755 3.583.223 5.714a16.351 16.351 0 0 1 -3.561 3.789 52.775 52.775 0 0 1 -7.074 4.22 56.468 56.468 0 0 1 -6.059 2.229m1.887-4.113a23.214 23.214 0 0 0 11.519-7.126 2.164 2.164 0 0 0 .567-.8c.135-.486.348-1.32.151-1.454a2.084 2.084 0 0 0 -1.706-.36 26.257 26.257 0 0 0 -5.652 3.279c-1.89 1.654-3.87 3.423-4.879 6.458" transform="translate(135.67 24.993)"/><path d="m568.694 6.95c-.121 1.452-.809 2.155-2.16 1.444-6.751-3.551-11.886-.079-16.619 4.068a6.578 6.578 0 0 0 -1.6 7.351c.921 2.581 2.122 5.065 3 7.658a35.624 35.624 0 0 1 1.89 13.618c-.215 3.661-1.4 5.048-4.917 6.112-1.152.349-2.367.485-3.543.764-1.938.461-2.783-1.037-3.692-2.181a2.82 2.82 0 0 1 -.323-3.662 3.4 3.4 0 0 1 .831-.572c.258.263.575.444.665.7.6 1.718 1.891 2.611 3.556 2.2 1.865-.463 4.19-.909 4.431-3.359a24.093 24.093 0 0 0 -.065-7.822c-.92-3.82-2.584-7.46-3.916-11.183-.476-1.332-.945-2.668-1.341-4.025-1.357-4.649 1.506-7.52 4.528-10.163 3.393-2.967 7.831-3.593 12.015-4.166a8.221 8.221 0 0 1 7.258 3.216" transform="translate(126.15 .858)"/><path d="m353.662 139.965c.905-.72 1.242-.961 1.544-1.237a8.423 8.423 0 0 0 .627-.706c.176.173.444.338.419.426a34.27 34.27 0 0 1 -1.1 3.73 2.1 2.1 0 0 1 -2.721 1.261 2.494 2.494 0 0 1 -2.145-2.578 29 29 0 0 1 .58-4.585c1.995-9.789 5.6-19.019 9.824-28.028q3.712-7.912 7.416-15.826c1.049-2.247 2.425-3.231 5.859-3.989l1.2 2.292c-4.539 2.31-6.085 6.57-7.941 10.661-1.638 3.611-3.507 7.116-5.263 10.674a92.632 92.632 0 0 0 -6.408 17.274c-.736 2.769-1.305 5.584-1.906 8.387a13.306 13.306 0 0 0 .012 2.245" transform="translate(81.803 20.652)"/><path d="m525.242 26.324c.08 1.676.871 1.655 1.851 1.671a9.123 9.123 0 0 1 2.444.833c-1.744 1.865-3.395 2.551-5.3 1.728-2.118-.914-2.425-3.039-2.563-4.986a38.712 38.712 0 0 1 .3-5.5 1.377 1.377 0 0 1 .307-.913c2.6-1.961 5.086-4.172 7.941-5.659a15.155 15.155 0 0 0 3.3-1.708c1.616-1.394 2.792-1.4 4.425-.227a3.166 3.166 0 0 1 .7 4.13 18.62 18.62 0 0 1 -11.147 9.984c-.708.231-1.435.412-2.26.646m7.934-8.112c-.131-.287-.26-.574-.389-.861-1.65 1.106-3.617 1.816-4.291 4.183q2.339-1.662 4.68-3.322" transform="translate(121.818 2.502)"/><path d="m551.668 137.241 2.413 1.451c-1.014 2.065-1.911 2.583-3.45 2.061s-2.383-1.58-1.727-3.339a26.643 26.643 0 0 1 3.741-7.224c7.574-9.572 15.372-18.966 23.047-28.458a23.99 23.99 0 0 0 2.463-3.888 2.691 2.691 0 0 1 3.227-1.641 3.229 3.229 0 0 1 1.992 1.358c.477 1-.448 1.484-1.31 1.89a11.856 11.856 0 0 0 -4.65 4.443c-1.778 2.6-4.2 4.745-6.253 7.166-4.041 4.769-8.2 9.459-11.963 14.438-2.759 3.649-4.974 7.71-7.531 11.742" transform="translate(128.133 22.443)"/><path d="m143.467 37.22c-4.018-.729-4.624-2.03-2.884-4.85a23.492 23.492 0 0 0 3.455-11.863 6.125 6.125 0 0 1 .572-1.525l4.726.877a20.093 20.093 0 0 1 14.474-4.208c.2 1.53-.628 1.932-1.623 2.275-1.96.675-3.868 1.527-5.858 2.091-4.617 1.31-6.9 4.98-8.967 8.8-1.451 2.68-2.581 5.536-3.9 8.407" transform="translate(32.616 3.637)"/><path d="m526.909 132.6c-1.278-2.529.321-4.178 1.372-5.9 1.309-2.145 2.837-4.158 4.11-6.324.567-.962 1.163-1.732 2.264-1.447a3.161 3.161 0 0 1 1.679 1.361 1.989 1.989 0 0 1 -.522 2.648 32.828 32.828 0 0 0 -3.481 3.915 7.04 7.04 0 0 0 -1.3 2.973c-.54 3.511-.47 3.522-4.117 2.777" transform="translate(122.938 27.759)"/><path d="m544.877 103.144c1.717.824 2.7 1.564 1.929 2.824a1.79 1.79 0 0 1 -2.63.5c-.893-.619-1.963-1.453-1.139-2.627.395-.561 1.541-.595 1.839-.7" transform="translate(126.747 24.087)"/><path d="m613.676 130.786a9.764 9.764 0 0 1 2.656-.736 2.534 2.534 0 0 1 1.78.919 1.813 1.813 0 0 1 -.467 1.7 2.312 2.312 0 0 1 -1.993.433c-.711-.385-1.141-1.285-1.975-2.319" transform="translate(143.312 30.37)"/></g></svg>