<svg xmlns="http://www.w3.org/2000/svg" xmlns:xlink="http://www.w3.org/1999/xlink" width="19" height="19" viewBox="0 0 19 19">
  <defs>
    <clipPath id="clip-path">
      <rect id="長方形_17" data-name="長方形 17" width="19" height="19" transform="translate(0 0)" fill="#ff5800"/>
    </clipPath>
  </defs>
  <g id="salon_insta_sp" transform="translate(0 0)">
    <g id="insta_icon" transform="translate(0 0)" clip-path="url(#clip-path)">
      <path id="パス_9495" data-name="パス 9495" d="M13.627,19.258h-8A5.637,5.637,0,0,1,0,13.627v-8A5.637,5.637,0,0,1,5.631,0h8a5.637,5.637,0,0,1,5.631,5.631v8a5.637,5.637,0,0,1-5.631,5.631M5.631,1.8A3.84,3.84,0,0,0,1.8,5.631v8a3.84,3.84,0,0,0,3.835,3.835h8a3.84,3.84,0,0,0,3.835-3.835v-8A3.84,3.84,0,0,0,13.627,1.8Z" transform="translate(0 0)" fill="#ff5800"/>
      <path id="パス_9496" data-name="パス 9496" d="M54.12,13.748a1.2,1.2,0,1,1-1.2-1.2,1.2,1.2,0,0,1,1.2,1.2" transform="translate(-38.146 -9.255)" fill="#ff5800"/>
      <path id="パス_9497" data-name="パス 9497" d="M22.7,27.677A4.978,4.978,0,1,1,27.677,22.7,4.983,4.983,0,0,1,22.7,27.677m0-8.16A3.182,3.182,0,1,0,25.881,22.7,3.186,3.186,0,0,0,22.7,19.517" transform="translate(-13.07 -13.071)" fill="#ff5800"/>
    </g>
  </g>
</svg>
