<svg xmlns="http://www.w3.org/2000/svg" xmlns:xlink="http://www.w3.org/1999/xlink" width="70" height="70" viewBox="0 0 70 70">
  <defs>
    <clipPath id="clip-path">
      <rect id="長方形_1750" data-name="長方形 1750" width="70" height="70" fill="none"/>
    </clipPath>
  </defs>
  <g id="howto_icon01" transform="translate(0 0)">
    <g id="グループ_5082" data-name="グループ 5082" transform="translate(0 0)" clip-path="url(#clip-path)">
      <path id="パス_9882" data-name="パス 9882" d="M0,70H70V0H0Zm65.375-4.886h-.046v.311H4.877V28.913h0V21.3l0,0V8.017h0V4.873h60.25V4.9h.252Z" transform="translate(0 0.001)" fill="#1a1311"/>
      <path id="パス_9883" data-name="パス 9883" d="M37.527,8.132a10.647,10.647,0,0,0-10.048,7.143q-2.635,4.852-5.266,9.7-5.882,4.249-11.765,8.494a4.388,4.388,0,0,0,5.917,6.4q5.245-3.557,10.512-7.166v11.16H41.171V8.786a10.507,10.507,0,0,0-3.644-.654" transform="translate(21.372 18.467)" fill="#1a1311"/>
      <path id="パス_9884" data-name="パス 9884" d="M23.163,35.806a8.61,8.61,0,0,1,3.114-4.523c.8-.572,1.619-1.148,2.424-1.72q-3.822-2.762-7.644-5.521-2.571-4.779-5.138-9.551A10.618,10.618,0,0,0,2.342,8.855V43.868H16.828V32.09Q20,33.949,23.163,35.806" transform="translate(5.318 18.467)" fill="#1a1311"/>
      <path id="パス_9885" data-name="パス 9885" d="M2.342,17.881A9.49,9.49,0,0,0,12.861,2.371H2.342Z" transform="translate(5.318 5.385)" fill="#1a1311"/>
      <path id="パス_9886" data-name="パス 9886" d="M15.057,9.275a9.477,9.477,0,0,0,13.3,8.7V2.371H18.043a9.472,9.472,0,0,0-2.986,6.9" transform="translate(34.19 5.385)" fill="#1a1311"/>
      <rect id="長方形_1747" data-name="長方形 1747" width="1.917" height="5.452" transform="matrix(0.737, -0.676, 0.676, 0.737, 26.947, 34.196)" fill="#1a1311"/>
      <rect id="長方形_1748" data-name="長方形 1748" width="5.452" height="1.915" transform="matrix(0.582, -0.813, 0.813, 0.582, 39.714, 37.217)" fill="#1a1311"/>
      <rect id="長方形_1749" data-name="長方形 1749" width="1.917" height="5.452" transform="translate(34.928 30.176)" fill="#1a1311"/>
    </g>
  </g>
</svg>
