<svg xmlns="http://www.w3.org/2000/svg" xmlns:xlink="http://www.w3.org/1999/xlink" width="70" height="70" viewBox="0 0 70 70">
  <defs>
    <clipPath id="clip-path">
      <rect id="長方形_1760" data-name="長方形 1760" width="70" height="70" fill="none"/>
    </clipPath>
  </defs>
  <g id="howto_icon03" transform="translate(0 0)">
    <g id="グループ_5086" data-name="グループ 5086" transform="translate(0 0)" clip-path="url(#clip-path)">
      <path id="パス_9904" data-name="パス 9904" d="M11.625,7.558a10.385,10.385,0,1,0,19.35-5.217H13.044a10.308,10.308,0,0,0-1.419,5.217" transform="translate(26.397 5.317)" fill="#1a1311"/>
      <path id="パス_9905" data-name="パス 9905" d="M30.578,10.686a11.707,11.707,0,0,0-7.68-2.76,11.279,11.279,0,0,0-6.934,2.332,11.815,11.815,0,0,0-4.219,8.6c2.666.3,5.959.71,6.944.873a4.431,4.431,0,0,1,3.431,3.264,7.145,7.145,0,0,1-2.064,6.947C19.072,32.053,15.278,40.08,13.59,42.1a9.129,9.129,0,0,1-2.273,1.956l-.01.484H34.539V19.566a12.029,12.029,0,0,0-3.961-8.88" transform="translate(25.675 17.997)" fill="#1a1311"/>
      <path id="パス_9906" data-name="パス 9906" d="M33.16,24.136a2.178,2.178,0,0,0-.481-.877,1.306,1.306,0,0,0-.733-.415c-.18-.029-.455-.069-.8-.118-.863-.118-2.162-.281-3.526-.445l-1.645-.2c-.19-.023-.376-.043-.563-.065l-1-.114c-.494-.056-.952-.1-1.348-.147-.6-.062-1.056-.108-1.3-.124-.742-.056-2.417-.3-2.492-1.341a2.036,2.036,0,0,1,.549-1.328c.213-.343.412-.677.592-1s.347-.635.5-.939a15.438,15.438,0,0,0,1-2.476,6.417,6.417,0,0,0-.553-5.681,2.274,2.274,0,0,0-.186-.252L21.1,8.545c-.049-.052-.1-.1-.15-.15l-.1-.078A1.742,1.742,0,0,0,20.7,8.2l-.111-.072c-.056-.033-.111-.065-.17-.095L20.3,7.972c-.059-.026-.121-.049-.183-.072L20,7.861a1.974,1.974,0,0,0-.2-.049l-.114-.023a2.128,2.128,0,0,0-.249-.023l-.075,0-.082.007A2,2,0,0,0,19,7.8c-.046.007-.088.02-.131.029a1.844,1.844,0,0,0-.229.069,1.08,1.08,0,0,0-.141.062c-.072.033-.141.069-.209.108-.046.029-.092.062-.137.095-.065.049-.131.1-.193.157-.043.039-.088.082-.131.128-.059.065-.118.134-.173.209-.039.052-.082.1-.118.16a2.686,2.686,0,0,0-.157.271,1.983,1.983,0,0,0-.1.186,3.356,3.356,0,0,0-.141.363c-.023.062-.049.121-.069.19a5.416,5.416,0,0,0-.16.651,9.852,9.852,0,0,1-.965,2.829,9.278,9.278,0,0,1-.523.87c-.183.271-.37.523-.563.759-.288.357-.579.677-.86.978l-.549.579c-.173.186-.34.37-.494.549s-.324.376-.5.579c-1.053,1.217-2.414,2.764-3.67,4.18-.625.71-1.227,1.384-1.75,1.972-.347.389-.661.739-.922,1.034-.527.592-.85.952-.85.952V40.31s1.593.334,3.725.769c.533.111,1.1.226,1.688.343l.589.118,1.2.235,1.207.235c.2.039.4.075.592.114.592.111,1.164.219,1.707.317l1.04.186c.988.17,1.8.294,2.319.347a7.477,7.477,0,0,0,.847.033c.118,0,.229-.013.343-.02.17-.01.343-.023.507-.046.118-.016.229-.036.34-.059.157-.029.314-.062.464-.1.108-.029.216-.062.324-.095.144-.046.288-.1.425-.154.1-.039.2-.078.3-.124.137-.062.268-.131.4-.2.088-.049.18-.1.268-.15q.191-.118.373-.245c.078-.056.157-.108.229-.164.131-.1.249-.2.37-.311.056-.049.118-.1.17-.15.144-.134.271-.278.4-.422l.072-.078a15.348,15.348,0,0,0,1.249-1.953c.288-.5.6-1.066.913-1.662.078-.15.16-.3.239-.455.16-.3.324-.618.487-.935.324-.631.651-1.279.965-1.913.16-.317.314-.631.464-.939.229-.464.445-.913.651-1.334.612-1.269,1.1-2.312,1.328-2.832a6.464,6.464,0,0,0,.87-.955,4.672,4.672,0,0,0,.942-2.368q.015-.221.01-.432a3.027,3.027,0,0,0-.124-.775" transform="translate(11.96 17.629)" fill="#1a1311"/>
      <rect id="長方形_1756" data-name="長方形 1756" width="6.365" height="17.462" transform="translate(7.101 42.588)" fill="#1a1311"/>
      <path id="パス_9907" data-name="パス 9907" d="M0,70H70V0H0Zm65.123-4.873h-.059v.2H4.612V4.872H65.064v0h.059Z" transform="translate(0 -0.001)" fill="#1a1311"/>
      <rect id="長方形_1757" data-name="長方形 1757" width="2.496" height="7.103" transform="translate(11.824 28.943) rotate(-84.875)" fill="#1a1311"/>
      <rect id="長方形_1758" data-name="長方形 1758" width="2.497" height="7.104" transform="translate(25.922 13.584) rotate(-6.768)" fill="#1a1311"/>
      <rect id="長方形_1759" data-name="長方形 1759" width="2.497" height="7.104" transform="matrix(0.739, -0.674, 0.674, 0.739, 15.973, 18.069)" fill="#1a1311"/>
    </g>
  </g>
</svg>
