<svg xmlns="http://www.w3.org/2000/svg" xmlns:xlink="http://www.w3.org/1999/xlink" width="70" height="70.001" viewBox="0 0 70 70.001">
  <defs>
    <clipPath id="clip-path">
      <rect id="長方形_1762" data-name="長方形 1762" width="70" height="70.001" fill="none"/>
    </clipPath>
  </defs>
  <g id="howto_icon05" transform="translate(0 0)">
    <path id="パス_9913" data-name="パス 9913" d="M4.873,4.873h60.25V65.124H4.873ZM0,70H70V0H0Z" fill="#1a1311"/>
    <g id="グループ_5092" data-name="グループ 5092" transform="translate(0 0)">
      <g id="グループ_5091" data-name="グループ 5091" clip-path="url(#clip-path)">
        <path id="パス_9914" data-name="パス 9914" d="M16.681,24.655c-.4,1.305-1.07,3.434-2,6.061-1.416,4-2.191,5.652-1.38,6.731.3.4,1.086,1.079,3.447.863,0,1.132,0,2.26,0,3.392a6.027,6.027,0,0,0,6.025,6.028,2.712,2.712,0,0,1,2.715,2.715v5.168h7.5V3.094A22.632,22.632,0,0,0,16.681,24.655" transform="translate(29.452 7.027)" fill="#1a1311"/>
        <path id="パス_9915" data-name="パス 9915" d="M26.587,9.914H23.941V8.661h2.646Zm-5.292,0H18.649V8.661H21.3ZM16,9.914H13.357V8.661H16Zm-5.292,0H8.065V8.661h2.646Z" transform="translate(18.313 19.668)" fill="#1a1311"/>
        <path id="パス_9916" data-name="パス 9916" d="M7.969,11.724a.13.13,0,0,1-.147-.147V3.567a.13.13,0,0,1,.147-.147h5.243a.13.13,0,0,1,.147.147V4.715a.13.13,0,0,1-.147.147H9.349V6.743h3.487a.139.139,0,0,1,.157.157V8.015q0,.147-.157.147H9.349v2.119h4q.147,0,.147.157v1.138a.13.13,0,0,1-.147.147Z" transform="translate(17.762 7.767)" fill="#1a1311"/>
        <path id="パス_9917" data-name="パス 9917" d="M12.956,11.724a.13.13,0,0,1-.147-.147V8.571L9.8,3.6a.155.155,0,0,1-.033-.072c0-.069.046-.1.134-.1h1.423a.166.166,0,0,1,.167.1l2.1,3.667L15.67,3.525a.168.168,0,0,1,.17-.1h1.4a.128.128,0,0,1,.118.052.1.1,0,0,1-.013.124L14.336,8.558v3.019a.13.13,0,0,1-.147.147Z" transform="translate(22.185 7.767)" fill="#1a1311"/>
        <path id="パス_9918" data-name="パス 9918" d="M12.6,11.724a.13.13,0,0,1-.147-.147V3.567A.13.13,0,0,1,12.6,3.42h5.243a.13.13,0,0,1,.147.147V4.715a.13.13,0,0,1-.147.147H13.983V6.743H17.47a.139.139,0,0,1,.157.157V8.015q0,.147-.157.147H13.983v2.119h4q.147,0,.147.157v1.138a.13.13,0,0,1-.147.147Z" transform="translate(28.284 7.767)" fill="#1a1311"/>
        <path id="パス_9919" data-name="パス 9919" d="M13.677,47.928A6.025,6.025,0,0,0,19.7,41.9V38.508c2.365.219,3.153-.461,3.454-.86.808-1.083.033-2.738-1.387-6.731-.926-2.626-1.6-4.759-2-6.064A22.574,22.574,0,0,0,2.311,3.007V55.814h8.651V50.642a2.714,2.714,0,0,1,2.715-2.715" transform="translate(5.248 6.83)" fill="#1a1311"/>
      </g>
    </g>
  </g>
</svg>
