<svg xmlns="http://www.w3.org/2000/svg" xmlns:xlink="http://www.w3.org/1999/xlink" width="70" height="70" viewBox="0 0 70 70">
  <defs>
    <clipPath id="clip-path">
      <rect id="長方形_1755" data-name="長方形 1755" width="70" height="70" fill="none"/>
    </clipPath>
  </defs>
  <g id="howto_icon02" transform="translate(0 0)">
    <g id="グループ_5084" data-name="グループ 5084" transform="translate(0 0)" clip-path="url(#clip-path)">
      <path id="パス_9887" data-name="パス 9887" d="M8.5,18.332c-.34,1.115-.916,2.937-1.711,5.184-1.21,3.418-1.874,4.831-1.181,5.756.258.343.929.922,2.95.736v2.9a5.154,5.154,0,0,0,5.155,5.151,2.323,2.323,0,0,1,2.322,2.322v4.36H36.365V35.771A19.492,19.492,0,0,0,46.38,18.636,19.7,19.7,0,0,0,43.122,7.741H11.759A19.7,19.7,0,0,0,8.5,18.332m17.443-4.37,4.419,6.931H27.475V32.755H23.9V20.893H21.018Z" transform="translate(12.101 17.579)" fill="#1a1311"/>
      <path id="パス_9888" data-name="パス 9888" d="M3.762,9.24a.1.1,0,0,1-.118-.118V2.711c0-.078.039-.114.118-.114h2A2.818,2.818,0,0,1,7.742,3.2,2.2,2.2,0,0,1,8.4,4.909a2.214,2.214,0,0,1-.657,1.717,2.818,2.818,0,0,1-1.976.608h-.9V9.122a.1.1,0,0,1-.118.118ZM5.724,6.1a1.651,1.651,0,0,0,1.043-.288,1.1,1.1,0,0,0,.37-.922,1.045,1.045,0,0,0-.37-.88,1.671,1.671,0,0,0-1.043-.281h-.86V6.1Z" transform="translate(8.275 5.898)" fill="#1a1311"/>
      <path id="パス_9889" data-name="パス 9889" d="M9,9.452A3.565,3.565,0,0,1,7.66,9.206,3.1,3.1,0,0,1,6.6,8.51a3.177,3.177,0,0,1-.7-1.089,3.743,3.743,0,0,1-.252-1.41,3.8,3.8,0,0,1,.252-1.423A3.194,3.194,0,0,1,6.6,3.5a3.1,3.1,0,0,1,1.056-.7,3.733,3.733,0,0,1,2.679,0,3.126,3.126,0,0,1,1.063.7,3.194,3.194,0,0,1,.7,1.086,3.867,3.867,0,0,1,.249,1.423,3.808,3.808,0,0,1-.249,1.41,3.177,3.177,0,0,1-.7,1.089,3.126,3.126,0,0,1-1.063.7A3.583,3.583,0,0,1,9,9.452M9,8.258a2.163,2.163,0,0,0,.863-.167,1.832,1.832,0,0,0,.657-.464,2.058,2.058,0,0,0,.412-.71,2.872,2.872,0,0,0,0-1.815,2.1,2.1,0,0,0-.412-.713,1.84,1.84,0,0,0-.657-.468A2.163,2.163,0,0,0,9,3.754a2.135,2.135,0,0,0-.86.167,1.9,1.9,0,0,0-.657.468,2.118,2.118,0,0,0-.419.713,2.934,2.934,0,0,0,0,1.815,2.071,2.071,0,0,0,.419.71,1.891,1.891,0,0,0,.657.464A2.135,2.135,0,0,0,9,8.258" transform="translate(12.841 5.808)" fill="#1a1311"/>
      <path id="パス_9890" data-name="パス 9890" d="M10.689,9.453a2.649,2.649,0,0,1-1.563-.442A2.4,2.4,0,0,1,8.233,7.7a.092.092,0,0,1-.01-.049c0-.046.029-.075.085-.092L9.25,7.33l.043-.007a.1.1,0,0,1,.1.082,1.411,1.411,0,0,0,.484.648,1.412,1.412,0,0,0,.811.206,1.633,1.633,0,0,0,.782-.164.569.569,0,0,0,.3-.54.7.7,0,0,0-.291-.585,3.008,3.008,0,0,0-.8-.4l-.585-.209a3.134,3.134,0,0,1-1.253-.749A1.655,1.655,0,0,1,8.39,4.422a1.653,1.653,0,0,1,.173-.752,1.787,1.787,0,0,1,.471-.589A2.229,2.229,0,0,1,9.741,2.7a2.726,2.726,0,0,1,.88-.137,2.528,2.528,0,0,1,1.429.392A2.155,2.155,0,0,1,12.9,4.18l.007.049c0,.046-.029.075-.085.092l-.994.252-.049.007c-.039,0-.072-.026-.1-.082a1.193,1.193,0,0,0-.422-.576,1.127,1.127,0,0,0-.631-.167,1.253,1.253,0,0,0-.7.17.528.528,0,0,0-.258.464.663.663,0,0,0,.268.53,2.662,2.662,0,0,0,.85.412l.468.16a3.12,3.12,0,0,1,1.344.769,1.816,1.816,0,0,1,.445,1.3,1.722,1.722,0,0,1-.17.762,1.813,1.813,0,0,1-.481.6,2.308,2.308,0,0,1-.746.392,3.125,3.125,0,0,1-.952.141" transform="translate(18.672 5.81)" fill="#1a1311"/>
      <rect id="長方形_1751" data-name="長方形 1751" width="1.22" height="6.643" rx="0.036" transform="translate(33.655 8.494)" fill="#1a1311"/>
      <path id="パス_9891" data-name="パス 9891" d="M13.526,9.239a.1.1,0,0,1-.118-.118V3.747H11.354c-.075,0-.111-.039-.111-.118V2.714c0-.078.036-.118.111-.118h5.321a.1.1,0,0,1,.118.118V3.63a.1.1,0,0,1-.118.118H14.638V9.121q0,.118-.128.118Z" transform="translate(25.53 5.896)" fill="#1a1311"/>
      <rect id="長方形_1752" data-name="長方形 1752" width="1.22" height="6.643" rx="0.036" transform="translate(44.237 8.494)" fill="#1a1311"/>
      <path id="パス_9892" data-name="パス 9892" d="M17.2,9.239a.131.131,0,0,1-.134-.092l-2.6-6.417a.116.116,0,0,1-.02-.052c0-.056.039-.082.111-.082H15.7a.122.122,0,0,1,.134.092l1.805,4.854,1.789-4.854c.016-.062.062-.092.141-.092h1.119a.1.1,0,0,1,.092.036.088.088,0,0,1,0,.1l-2.6,6.417a.131.131,0,0,1-.134.092Z" transform="translate(32.819 5.896)" fill="#1a1311"/>
      <path id="パス_9893" data-name="パス 9893" d="M17.067,9.239a.1.1,0,0,1-.118-.118V2.714a.1.1,0,0,1,.118-.118h4.2a.1.1,0,0,1,.114.118V3.63a.1.1,0,0,1-.114.118H18.169v1.5h2.793a.112.112,0,0,1,.124.128v.893c0,.078-.043.118-.124.118H18.169V8.084h3.2q.118,0,.118.128v.909a.1.1,0,0,1-.118.118Z" transform="translate(38.486 5.896)" fill="#1a1311"/>
      <path id="パス_9894" data-name="パス 9894" d="M5.707,11.794a.1.1,0,0,1-.118-.118V6.3H3.535c-.075,0-.111-.039-.111-.118V5.269c0-.078.036-.118.111-.118H8.857a.1.1,0,0,1,.118.118v.916a.1.1,0,0,1-.118.118H6.819v5.374q0,.118-.128.118Z" transform="translate(7.775 11.698)" fill="#1a1311"/>
      <path id="パス_9895" data-name="パス 9895" d="M5.689,11.794a.1.1,0,0,1-.118-.118V5.269a.1.1,0,0,1,.118-.118h.984a.1.1,0,0,1,.118.118V7.807H9.865V5.269a.1.1,0,0,1,.118-.118h.988c.078,0,.114.039.114.118v6.407c0,.078-.036.118-.114.118H9.983a.1.1,0,0,1-.118-.118V8.961H6.791v2.715a.1.1,0,0,1-.118.118Z" transform="translate(12.65 11.698)" fill="#1a1311"/>
      <rect id="長方形_1753" data-name="長方形 1753" width="1.22" height="6.643" rx="0.036" transform="translate(25.66 16.85)" fill="#1a1311"/>
      <path id="パス_9896" data-name="パス 9896" d="M8.922,11.794a.1.1,0,0,1-.118-.118V5.269a.1.1,0,0,1,.118-.118H9.959a.175.175,0,0,1,.15.082l2.967,4.589V5.269a.1.1,0,0,1,.118-.118h.942a.1.1,0,0,1,.118.118v6.407a.1.1,0,0,1-.118.118H13.1a.159.159,0,0,1-.141-.085l-2.983-4.6v4.563a.1.1,0,0,1-.118.118Z" transform="translate(19.991 11.698)" fill="#1a1311"/>
      <path id="パス_9897" data-name="パス 9897" d="M11.174,11.794a.1.1,0,0,1-.118-.118V5.269a.1.1,0,0,1,.118-.118h.984a.1.1,0,0,1,.118.118V8.311l2.659-3.094a.2.2,0,0,1,.15-.065h1.151c.069,0,.1.023.1.075a.159.159,0,0,1-.033.065l-2.1,2.375,2.4,3.987.016.056c0,.056-.033.085-.1.085H15.36a.134.134,0,0,1-.134-.085L13.4,8.569,12.276,9.838v1.838a.1.1,0,0,1-.118.118Z" transform="translate(25.105 11.698)" fill="#1a1311"/>
      <rect id="長方形_1754" data-name="長方形 1754" width="1.22" height="6.643" rx="0.036" transform="translate(43.189 16.85)" fill="#1a1311"/>
      <path id="パス_9898" data-name="パス 9898" d="M14.284,11.794a.105.105,0,0,1-.121-.118V5.269a.105.105,0,0,1,.121-.118h1.037a.179.179,0,0,1,.15.082l2.963,4.589V5.269a.1.1,0,0,1,.118-.118h.942a.105.105,0,0,1,.121.118v6.407a.105.105,0,0,1-.121.118H18.457a.154.154,0,0,1-.137-.085l-2.986-4.6v4.563c0,.078-.036.118-.114.118Z" transform="translate(32.16 11.698)" fill="#1a1311"/>
      <path id="パス_9899" data-name="パス 9899" d="M19.616,12.008a3.517,3.517,0,0,1-1.338-.245,2.983,2.983,0,0,1-1.03-.7,3.045,3.045,0,0,1-.664-1.086,4.027,4.027,0,0,1-.235-1.413,3.976,3.976,0,0,1,.242-1.419,3.157,3.157,0,0,1,.68-1.086,3.063,3.063,0,0,1,1.04-.7,3.42,3.42,0,0,1,1.321-.249,3.224,3.224,0,0,1,1.779.464,2.655,2.655,0,0,1,1.063,1.315.12.12,0,0,1,.007.052.1.1,0,0,1-.082.108l-.968.268-.036.007a.1.1,0,0,1-.108-.075,1.7,1.7,0,0,0-.657-.7,1.883,1.883,0,0,0-.981-.242,2.175,2.175,0,0,0-.857.16,1.79,1.79,0,0,0-.641.461,1.976,1.976,0,0,0-.4.713,2.963,2.963,0,0,0-.137.929,2.815,2.815,0,0,0,.141.922,2.052,2.052,0,0,0,.406.706,1.756,1.756,0,0,0,.641.451,2.178,2.178,0,0,0,.85.16,2.521,2.521,0,0,0,.684-.092,1.649,1.649,0,0,0,.549-.281,1.5,1.5,0,0,0,.392-.464,1.567,1.567,0,0,0,.19-.635H19.8a.1.1,0,0,1-.118-.118v-.9A.1.1,0,0,1,19.8,8.2h2.774a.1.1,0,0,1,.118.118v.752a3.257,3.257,0,0,1-.2,1.155,2.66,2.66,0,0,1-.589.932,2.7,2.7,0,0,1-.962.621,3.6,3.6,0,0,1-1.325.226" transform="translate(37.124 11.612)" fill="#1a1311"/>
      <path id="パス_9900" data-name="パス 9900" d="M0,70H70V0H0Zm65.123-4.873H50.8v0H21.891v0H4.873V4.876h60.25Z" transform="translate(0 -0.001)" fill="#1a1311"/>
      <path id="パス_9901" data-name="パス 9901" d="M5.509,21.517a6.455,6.455,0,0,1,0-6.865L7.118,15.7a4.448,4.448,0,0,0-.68,2.453,4.389,4.389,0,0,0,.68,2.325Z" transform="translate(10.266 33.272)" fill="#1a1311"/>
      <path id="パス_9902" data-name="パス 9902" d="M4.907,24.715a10.022,10.022,0,0,1,0-10.64l1.609,1.043A8,8,0,0,0,5.3,19.511a7.88,7.88,0,0,0,1.22,4.16Z" transform="translate(7.672 31.962)" fill="#1a1311"/>
      <path id="パス_9903" data-name="パス 9903" d="M3.989,28.215a14.72,14.72,0,0,1-1.91-7.186,14.778,14.778,0,0,1,1.91-7.585l1.655.968A12.994,12.994,0,0,0,3.992,21a12.745,12.745,0,0,0,1.652,6.244Z" transform="translate(4.718 30.529)" fill="#1a1311"/>
    </g>
  </g>
</svg>
