<svg xmlns="http://www.w3.org/2000/svg" xmlns:xlink="http://www.w3.org/1999/xlink" width="178.803" height="855.042" viewBox="0 0 178.803 855.042">
  <defs>
    <clipPath id="clip-path">
      <rect id="長方形_1489" data-name="長方形 1489" width="178.803" height="855.042" fill="#ff5800"/>
    </clipPath>
  </defs>
  <g id="message_catch" opacity="0.713">
    <g id="グループ_3414" data-name="グループ 3414" clip-path="url(#clip-path)">
      <path id="パス_9647" data-name="パス 9647" d="M59.764,6.128l2-3.3c.431-.8.789-1.372,1.22-1.372.358,0,.789.46,1.289,1.138l3.509,4.67a3.355,3.355,0,0,1,.789,2.051c0,1.365-1,2.394-2.656,4.218-.142,5.123-.142,7.064-.142,12.07,0,27.569.358,42.149.789,63.224,0,.109.073,1.934.073,2.386,0,4.787-3.725,5.13-4.009,5.13-2.078,0-1.936-2.846-1.867-4.787H33.556c.142,2.284.142,2.963-.289,3.992a4.319,4.319,0,0,1-3.794,2.729c-1.858,0-1.931-1.591-1.931-2.963,0-2.16.427-11.274.5-13.1.284-10.931.358-38.617.358-50,0-21.308-.358-25.519-.927-31.67l7.156,5.582ZM33.556,33.355H60.837V8.865H33.556Zm0,27.336H60.837V36.084H33.556Zm0,28.138H60.837v-25.4H33.556Z" transform="translate(86.037 3.438)" fill="#ff5800"/>
      <path id="パス_9648" data-name="パス 9648" d="M63.253,99.234c0,4.211,0,11.617.142,12.646.431,2.955.931,2.955,5.872,2.955,9.666,0,10.308-.336,11.028-.8,3.078-1.934,5.009-15.033,5.372-17.886h.5c.073,2.058.789,12.88,2.362,14.7,1.358,1.6,1.573,1.824,1.573,3.189a7.814,7.814,0,0,1-3.72,6.495c-2.8,1.591-8.808,1.591-12.386,1.591-11.606,0-12.4,0-13.68-1.365-1.862-2.051-1.862-6.6-1.862-10.815V99.234H49.216l4.009,4.327a1.794,1.794,0,0,1,.431,1.138c0,1.715-.789,1.715-2.436,2.394-4.367,8.428-11.1,17.66-26.423,18.338l-.073-.9C37.4,120.309,44.491,109.144,47.5,99.234H45.138c-.147,4.554-3.152,4.554-3.367,4.554-1.862,0-1.862-2.16-1.862-3.072s.073-2.737.142-3.649c.142-3.415.142-9.91.142-12.982,0-10.931,0-24.037-.427-30.641l6.372,4.787H67.047l2.22-2.963c.216-.343.569-.912.927-.912.289,0,.573.343.936.8l3.22,4.1a2.713,2.713,0,0,1,.5,1.481c0,1.138-.647,2.051-1.931,3.758,0,3.875.073,7.859.142,15.492.073,2.846.362,15.04.362,17.426,0,3.422-2.151,4.9-3.441,4.9s-1.647-1.146-1.716-3.079Zm15.68-53.993L81.8,41.023c.358-.452.642-.9,1.289-.9.5,0,1.216.679,1.431,1.022l4.22,6.378a3.382,3.382,0,0,1,.573,1.934c0,2.853-4.294,2.284-5.156,2.167a52.747,52.747,0,0,1-6.8,9.231l-.431-.343a84.147,84.147,0,0,0,2.363-12.53H34.252c0,.679.069,1.708.069,3.072,0,3.992-.931,14.7-5.73,14.7-2.073,0-3.147-2.167-3.147-4.327,0-2.736.573-3.532,2.867-6.954a34.475,34.475,0,0,0,4.009-15.032h.569c.427,2.051.789,3.532,1.073,5.809H64.9a149.353,149.353,0,0,0,7.23-20.272,35.871,35.871,0,0,0,.647-6.385l6.872,6.495a2.221,2.221,0,0,1,.647,1.591c0,2.058-2.72,2.4-3.294,2.51A103.8,103.8,0,0,1,66.258,45.241ZM37.046,23.371c3.652,1.6,10.381,5.925,10.381,13.1,0,3.532-1.716,5.123-2.936,5.123-1.936,0-2.578-2.846-3.078-5.123-1.647-7.516-3.656-10.822-4.656-12.53Zm8.161,47.5H68.194V60.96H45.207Zm0,12.646H68.194v-9.91H45.207Zm22.987,2.729H45.207V96.5H68.194ZM51.363,20.408c9.666,5.7,9.666,14.923,9.666,15.266,0,2.846-1.284,5.123-2.931,5.123-2.151,0-2.578-2.62-3.22-7.064-.789-4.9-2.225-10.136-3.8-12.639Z" transform="translate(76.176 117.029)" fill="#ff5800"/>
      <path id="パス_9649" data-name="パス 9649" d="M51.769,127.869v-.686C69.816,119.215,76.9,103.38,76.9,88.8c0-11.165-5.587-23.468-18.478-23.921C53.485,81.167,50.7,89.821,45.97,99.5c.211.452,1.573,3.079,2.431,4.67,1.147,2.167,2.509,4.787,2.509,7.516,0,1.715-.573,3.422-1.72,3.422-2.647,0-5.514-7.064-6.445-9.231-2.794,5.356-7.666,13.442-11.028,13.442-1,0-1.72-.686-2.363-1.934-.5-.912-2-6.838-2.436-8.085a17.431,17.431,0,0,1-1.289-6.378c0-3.992,1-15.266,9.6-27.117C32.364,58.5,32.075,56.56,29.5,49.956c2.5.569,5.794,4.554,7.3,10.588.147.577,1.794,10.479,1.867,11.055,4.652-5.239,10.019-8.545,15.68-9.8.427-1.591,2.789-10.705,2.789-14.011,0-3.072-1.069-4.554-4.225-8.538a3.658,3.658,0,0,1,2.294-.8c4.009,0,8.234,4.444,8.234,9.574,0,2.277-.358,3.3-1.858,7.173-.716,1.934-1,2.736-2.009,6.035,14.253,0,22.845,12.3,22.845,29.62,0,22.892-15.111,37.136-30.648,37.019M36.016,80.6a46.973,46.973,0,0,0-6.445,23.235c0,2.963.353,7.75,2.794,7.75,2.789,0,7.372-9,8.445-11.282a144.8,144.8,0,0,1-4.794-19.7m3.363-5.013a119.363,119.363,0,0,0,4.3,18.229,243.247,243.247,0,0,0,9.666-28.255c-4.872,1.255-9.666,4.561-13.964,10.027" transform="translate(79.426 242.12)" fill="#ff5800"/>
      <path id="パス_9650" data-name="パス 9650" d="M78.733,67.652c-9.812,0-10.886,0-13.964,1.6-8.45,4.554-16.184,20.958-16.184,37.019,0,19.477,13.1,23.461,18.258,25.059a6.447,6.447,0,0,1,4.941,6.721c0,3.415-2.216,3.415-2.716,3.415-4.156,0-23.992-6.152-23.992-33.371,0-17.66,7.377-29.846,15.542-40.1-4.152-.226-18.689,7.742-25.781,12.872-3.078,2.16-3.152,2.277-3.867,2.277-1.578,0-5.23-3.641-5.23-10.253a16.081,16.081,0,0,1,1.147-6.035c1.147,3.868,2.647,6.378,5.587,6.378a12.8,12.8,0,0,0,3.078-.686c16.184-6.152,17.973-6.83,25.065-9.224,4.152-1.481,9.234-3.079,12.313-4.554a7.335,7.335,0,0,1,2.936-.8c4.152,0,5.872,5.123,5.872,6.268,0,3.415-2,3.415-3,3.415" transform="translate(79.817 365.043)" fill="#ff5800"/>
      <path id="パス_9651" data-name="パス 9651" d="M50.881,175.064c-4.514,0-9.523-2.393-12.459-8.085-2.074-4.1-2.431-10.6-2.431-14.237a94.534,94.534,0,0,1,.858-11.625c-3.367-2.277-9.092-6.261-9.092-13.325,0-4.9,1.284-6.611,7.661-15.376a3.177,3.177,0,0,0,.858-2.167,1.907,1.907,0,0,0-.789-1.708c-5.945-5.13-8.019-7.064-8.092-14.237,4.372,6.947,8.6,8.538,13.822,10.479.711-5.473,1.716-14.58,1.716-18.229,0-5.692-2.431-7.969-4.652-9.793a3.611,3.611,0,0,1,3.078-1.6c3.436,0,8.166,5.123,8.166,9.224,0,1.489-.289,2.4-1.078,5.473a129.154,129.154,0,0,0-3.652,16.514,7.24,7.24,0,0,1,2.652,5.239c0,3.08-1.931,2.963-3.941,2.853-.931,5.918-1.073,6.947-2.931,21.41,1.211.117,6.367.46,7.372,1.029,1.22.8,3.147,3.415,3.147,5.575s-1.784,2.51-3.936,2.51a15.777,15.777,0,0,1-7.3-2.167c-.142,1.715-.284,4.1-.284,7.633,0,6.721.716,11.96,3.936,15.383a9.633,9.633,0,0,0,7.019,3.189c6.876,0,11.744-6.838,11.744-17.09,0-9.91-5.156-24.942-11.886-32.232l.289-.686c10.808,8.545,17.111,19.024,17.111,33.152,0,19.133-11.959,22.892-16.9,22.892m-20.336-48.41c0,4.9,4.656,7.29,6.945,8.312.5-4.211,1.289-11.158,2.509-20.732-5.372.234-9.455,7.75-9.455,12.42" transform="translate(85.754 473.332)" fill="#ff5800"/>
      <path id="パス_9652" data-name="パス 9652" d="M47.795,123.6c-2.363,0-2.936-2.963-3.656-6.838-.427-2.394-2.5-13.1-9.377-21.753l.289-1.029c5.009,2.51,7.941,4.327,11.381,9a24.5,24.5,0,0,1,4.8,14.011c0,3.189-1.289,6.611-3.441,6.611" transform="translate(112.186 591.841)" fill="#ff5800"/>
      <path id="パス_9653" data-name="パス 9653" d="M5.083,105.14c17.262-4.1,31.222-20.279,36.667-34.633h-17.9c-1,1.715-1.931,3.415-3.363,5.582,1.362.117,9.881.8,9.881,9.114,0,2.963-1.216,4.9-2.652,4.9s-1.789-1.022-3.578-5.809a26.329,26.329,0,0,0-4.083-7.516c-4.083,6.378-9.381,12.872-14.9,15.492v-.8c10.455-11.5,17.616-29.5,18.978-35.078H8.1C7.95,66.522,4.3,68.8,2.725,68.8,1.073,68.8,0,67.092,0,64.355S.716,60.6,2.941,57.408c2.716-3.868,3.436-8.2,3.936-10.931h.289a32.713,32.713,0,0,1,.858,7.173h46.9L56.5,51.483c.72-.912.936-1.131,1.362-1.131.5,0,1.078.562,1.358.9l4.8,5.925a4.118,4.118,0,0,1,.716,2.277,2.455,2.455,0,0,1-.931,2.051,37.805,37.805,0,0,1-4.152.686c-1.5,1.248-1.716,1.365-7.088,6.83l-.431-.8c.431-1.6,2.078-8.312,2.794-11.844H27.066L29.79,58.2a1.864,1.864,0,0,1,.573,1.481,2.79,2.79,0,0,1-.358,1.481c-.284.343-1.862,1.365-2.151,1.708-.716,1.481-1.358,2.736-2.5,4.9H41.534l2.078-2.963c.284-.46.858-1.255,1.362-1.255.711,0,1.358.912,1.5,1.138l3.367,4.554a3.677,3.677,0,0,1,.5,1.941c0,1.481-.289,1.591-3.867,3.306-9.812,20.958-24.056,31.2-41.392,31.546ZM38.672,11.391c0-6.721,0-7.633-.862-11.391L44.4,2.394a1.384,1.384,0,0,1,1,1.474c0,1.029-.206,1.255-2,2.963-.073,1.715-.073,2.394,0,4.561h11.6L57.5,6.721c.431-.8.862-1.481,1.147-1.481.431,0,.784.569,1.358,1.255l4.083,4.663a3.026,3.026,0,0,1,.716,1.824c0,1.029-.647,1.138-1.142,1.138H43.4c.073,1.715.142,6.385-.216,7.29-.647,1.824-1.794,2.394-2.863,2.394-1.862,0-1.794-.912-1.72-9.684H27.139c0,2.853,0,7.29-.284,8.093a2.654,2.654,0,0,1-2.436,1.934c-2.073,0-2.073-1.708-2.073-2.736V14.12h-10.6A30.588,30.588,0,0,0,3.3,15.149L1.862,10.705a93.316,93.316,0,0,0,11.033.686h9.45c-.073-5.925-.073-7.859-.716-11.165l6.156,2.051a1.448,1.448,0,0,1,1.147,1.591c0,1.146-1,1.941-1.794,2.627v4.9ZM49.626,25.628l1-1.934c.647-1.146.862-1.372,1.22-1.372.216,0,.431.117,1.289,1.029l2.72,2.846A2.385,2.385,0,0,1,56.5,27.9c0,1.022-.142,1.255-1.931,3.189,0,2.167.069,12.187.069,14.244,0,3.868-3.22,4.211-3.5,4.211-1.216,0-1.289-1.022-1.289-1.934V45.448H15.469c0,3.992-2.574,3.992-3.147,3.992-2.009,0-2.009-1.489-2.009-2.284,0-2.846.289-15.6.289-18.229a53.431,53.431,0,0,0-.5-7.852l6.161,4.554ZM15.4,42.719H23.63V28.365H15.4Zm12.964,0h8.234V28.365H28.359ZM49.915,28.365H41.176V42.719h8.739Z" transform="translate(0)" fill="#ff5800"/>
      <path id="パス_9654" data-name="パス 9654" d="M48.888,65.576c-6.945,2.16-13.606,6.261-20.12,10.705a121.624,121.624,0,0,1,.716,13.442c0,2.394,0,9.91-2.578,9.91-2.647,0-2.647-6.495-2.647-8.428,0-1.708,0-9.457-.073-11.165-4.8,4.787-10.239,13.1-10.239,19.258,0,8.655,9.381,8.655,11.455,8.655a42.012,42.012,0,0,0,10.959-1.934,9.4,9.4,0,0,1,2.5-.46c3.083,0,4.3,2.963,4.3,5.013a3.837,3.837,0,0,1-2.216,3.649,60.734,60.734,0,0,1-10.959,1.131c-3.936,0-18.978,0-18.978-14.12,0-10.712,8.812-21.075,12.9-25.4-.647-6.035-1.651-11.734-6.161-11.734-4.367,0-7.8,6.83-8.95,9.8C5.569,81.863,5.28,81.98,4.065,81.98c-1.72,0-2.083-1.941-2.083-4.67,0-4.1.789-5.13,1.578-6.268,5.087-6.947,8.734-16.171,12.244-25.4a25.027,25.027,0,0,1-6.372,1.138c-4.867,0-7.234-4.211-7.088-10.136,2.22,3.306,4.22,4.218,7.377,4.218a36.019,36.019,0,0,0,8.3-1.372c1-2.62,3.941-11.048,3.941-12.982,0-1.6-1.578-3.984-4.872-4.67A4.81,4.81,0,0,1,21.46,19.1c3.509,0,6.519,4.211,6.519,6.611a9.023,9.023,0,0,1-1.147,3.984,78.181,78.181,0,0,0-3.72,7.976c1.573-.686,8.45-5.239,9.955-5.239A3.99,3.99,0,0,1,36.86,36.3a3.113,3.113,0,0,1-1.5,2.846C32.062,41.429,24.185,43.479,20.1,44.5c-6.445,14.814-7.088,16.4-8.019,19.134,1.647-1.248,3.863-3.072,7.3-3.072,6.587,0,7.95,6.838,8.739,11.048C32.993,67.057,40.007,61.7,42.09,60.1a3.724,3.724,0,0,0,1.784-3.3c0-1.481-.573-2.167-2.216-4.1a2.984,2.984,0,0,1,1.5-.343c2.578,0,8.166,3.306,8.166,9.684,0,2.62-.931,3.079-2.436,3.532" transform="translate(7.11 120.273)" fill="#ff5800"/>
      <path id="パス_9655" data-name="パス 9655" d="M57.464,112.6c-.931,0-1.858-.8-3.863-3.532a68.4,68.4,0,0,0-8.523-10.027c-4.652,14.923-10.744,25.745-17.9,30.642l-.216-.452A116.8,116.8,0,0,0,41,95.506c-5.156-3.984-10.459-7.29-17.762-8.428-2.363,7.29-9.95,31.327-16.469,31.327-3.436,0-5.941-9.114-5.941-13.785,0-13.894,10.234-21.067,19.473-22.213,5.156-18.564,8.092-34.4,8.092-34.859,0-.788-.427-1.131-.784-1.131-1.867,0-5.8,4.211-7.239,5.692-1.284,1.365-2,1.941-2.574,1.941-1.647,0-4.656-4.335-4.656-9.457a10.451,10.451,0,0,1,1.078-4.787c.784,3.532,2.716,4.9,4.078,4.9,1.22,0,6.587-2.16,9.886-4.211a20.6,20.6,0,0,1,3.22-1.824c1.289,0,4.509,4.1,4.509,6.721,0,1.255-.142,1.481-1.789,5.013-2.22,4.554-7.3,23.461-9.455,31.663,6.876.912,14.322,4.444,17.9,6.721A80.251,80.251,0,0,0,44.22,75.8c0-3.532-.862-5.925-2.72-9.567a3.431,3.431,0,0,1,1.789-.569c2.936,0,6.445,6.261,6.445,9.793,0,2.051-1.578,11.508-2.794,16.4,5.872,4.554,12.964,10.253,12.964,16.4,0,3.415-1.5,4.327-2.44,4.327M3.833,102.57c0,5.013,2.073,8.545,3.652,8.545,2.794,0,9.308-15.952,11.386-23.8-4.225-.686-15.037,4.78-15.037,15.259" transform="translate(2.97 243.499)" fill="#ff5800"/>
      <path id="パス_9656" data-name="パス 9656" d="M54.133,67.652c-9.812,0-10.886,0-13.964,1.6-8.45,4.554-16.184,20.958-16.184,37.019,0,19.477,13.1,23.461,18.258,25.059a6.447,6.447,0,0,1,4.941,6.721c0,3.415-2.216,3.415-2.716,3.415-4.156,0-23.992-6.152-23.992-33.371,0-17.66,7.377-29.846,15.542-40.1-4.152-.226-18.689,7.742-25.781,12.872-3.078,2.16-3.152,2.277-3.867,2.277-1.578,0-5.23-3.641-5.23-10.253a16.082,16.082,0,0,1,1.147-6.035c1.147,3.868,2.647,6.378,5.587,6.378a12.8,12.8,0,0,0,3.078-.686c16.184-6.152,17.973-6.83,25.065-9.224,4.152-1.481,9.234-3.079,12.313-4.554a7.335,7.335,0,0,1,2.936-.8c4.152,0,5.872,5.123,5.872,6.268,0,3.415-2,3.415-3,3.415" transform="translate(4.086 365.043)" fill="#ff5800"/>
      <path id="パス_9657" data-name="パス 9657" d="M20.3,134.649a10.79,10.79,0,0,0-.142,1.481c0,.912.573,5.239.573,6.152,0,2.955-1.147,3.868-2.216,3.868-2.509,0-12.68-5.692-13.9-38.158C4.193,96.717,3.9,89.544,3.473,87.034a53.331,53.331,0,0,0-2.5-9.341c3.652.343,9.019,5.349,9.019,12.756a25.492,25.492,0,0,1-.28,3.758,155.134,155.134,0,0,0-.931,15.835c0,14.011,4.294,22.33,6.225,22.33.789,0,1.5-1.481,1.72-2.05,3.22-7.633,8.523-19.71,11.6-27.453l.573.343c-1,3.415-8.445,30.182-8.592,31.437m35.447-7.064c-.858,0-1.142-.452-3.936-4.67-1.931-2.846-5.8-3.992-7.592-4.554v-.686c1-.226,5.876-.912,6.376-1.138.927-.343,1.573-1.255,1.573-2.963,0-3.532-3.725-20.272-12.6-27.343a4.23,4.23,0,0,1,1.216-.219c8.019,0,17.473,20.958,17.473,34.166,0,3.992-1.362,7.407-2.509,7.407" transform="translate(3.473 489.258)" fill="#ff5800"/>
      <path id="パス_9658" data-name="パス 9658" d="M29.172,182.711c-6.877,0-13.964-4.444-13.964-13.332,0-7.852,4.941-9.91,7.877-9.91,5.372,0,9.381,5.925,11.244,15.383,5.725-1.6,9.734-11.391,9.734-20.053,0-9-4.367-16.966-11.67-16.966-13.964,0-23.2,21.527-24.276,24.147-1.784,4.554-2.431,6.268-3.936,6.268-.862,0-2.431-.8-2.431-4.787,0-3.758.573-4.67,4.867-11.282,5.725-8.99,23.341-45.331,23.341-49.658,0-.686-.211-1.138-.784-1.138-.931,0-6.376,2.846-10.239,6.144-.147.117-2.936,2.51-3.152,2.51-1.578,0-5.8-3.641-5.8-10.705a7.065,7.065,0,0,1,.784-3.758c1.647,4.32,2.936,5.349,4.945,5.349,3.436,0,11.023-3.415,13.175-4.553a27.393,27.393,0,0,1,3.22-1.481c2.72,0,5.225,5.466,5.225,7.859,0,1.824,0,1.934-2.578,5.013C32.9,110.037,19.149,135.1,16.282,142.5c4.3-3.875,9.739-8.093,17.189-8.093,11.524,0,16.038,10.939,16.038,21.3,0,13.106-7.161,27-20.336,27M21.365,164.03c-1.431,0-3.436,1.481-3.436,4.787,0,5.918,7.377,8.538,9.455,8.538a4.584,4.584,0,0,0,2.5-.686c-1.5-8.421-6.156-12.639-8.523-12.639" transform="translate(6.274 597.54)" fill="#ff5800"/>
      <path id="パス_9659" data-name="パス 9659" d="M19.736,146.266c-5.872,0-10.386-7.633-10.386-16.857,0-9.341,4.656-16.857,10.386-16.857,5.656,0,10.312,7.516,10.312,16.857,0,9.224-4.509,16.857-10.312,16.857m0-30.3c-4.656,0-8.308,6.035-8.308,13.442,0,7.29,3.583,13.558,8.308,13.558,4.583,0,8.234-6.159,8.234-13.558s-3.725-13.442-8.234-13.442" transform="translate(33.542 708.776)" fill="#ff5800"/>
    </g>
  </g>
</svg>
