<svg xmlns="http://www.w3.org/2000/svg" xmlns:xlink="http://www.w3.org/1999/xlink" width="500.846" height="156.615" viewBox="0 0 500.846 156.615">
  <defs>
    <clipPath id="clip-path">
      <rect id="長方形_15" data-name="長方形 15" width="500.846" height="156.615" transform="translate(0 0)" fill="none"/>
    </clipPath>
  </defs>
  <g id="mv_catch_pc" transform="translate(-197 -105)">
    <g id="グループ_26" data-name="グループ 26" transform="translate(197 105)" clip-path="url(#clip-path)">
      <path id="パス_32" data-name="パス 32" d="M32.936,3.951,34.8,2.016c.4-.465.735-.794,1.132-.794a2.194,2.194,0,0,1,1.2.662L40.4,4.621c.6.534.735.867.735,1.2,0,.8-.935,1.4-2.468,2.468-.132,3-.132,4.134-.132,7.063,0,16.134.333,24.666.735,37,0,.068.064,1.132.064,1.4,0,2.806-3.463,3.006-3.732,3.006-1.93,0-1.8-1.67-1.73-2.806H8.535c.132,1.337.132,1.738-.26,2.336a4.45,4.45,0,0,1-3.536,1.6c-1.734,0-1.8-.931-1.8-1.73,0-1.268.4-6.6.465-7.67.269-6.4.333-22.6.333-29.261,0-12.466-.333-14.934-.867-18.53L9.538,3.951ZM8.535,19.884h25.4V5.556H8.535Zm0,16h25.4v-14.4H8.535Zm0,16.467h25.4V37.482H8.535Z" transform="translate(9.393 2.251)" fill="#fff"/>
      <path id="パス_33" data-name="パス 33" d="M54.712,47.2c0,2.468,0,6.8.132,7.4.4,1.73.867,1.73,5.466,1.73,9,0,9.6-.2,10.266-.465,2.87-1.136,4.663-8.8,5-10.463h.465c.068,1.2.735,7.533,2.2,8.6,1.26.927,1.46,1.063,1.46,1.862,0,1.469-1.46,3.135-3.463,3.8-2.6.931-8.2.931-11.53.931-10.8,0-11.539,0-12.735-.8-1.734-1.2-1.734-3.865-1.734-6.329V47.2h-8.6l3.732,2.537a.877.877,0,0,1,.4.666c0,1-.735,1-2.263,1.4-4.065,4.932-10.335,10.335-24.6,10.736L18.849,62c11.8-2.473,18.4-9,21.2-14.8h-2.2c-.137,2.669-2.934,2.669-3.135,2.669a1.544,1.544,0,0,1-1.734-1.8c0-.534.068-1.6.132-2.131.132-2,.132-5.8.132-7.6,0-6.4,0-14.063-.4-17.932l5.932,2.8H58.244l2.067-1.738c.2-.2.534-.534.867-.534a1.6,1.6,0,0,1,.867.47l3,2.4a1.271,1.271,0,0,1,.465.867c0,.666-.6,1.2-1.8,2.2,0,2.263.068,4.6.132,9.066.068,1.67.337,8.8.337,10.2,0,2-2,2.865-3.2,2.865s-1.537-.67-1.6-1.8Zm14.6-31.6,2.665-2.468a1.693,1.693,0,0,1,1.2-.534,2.465,2.465,0,0,1,1.332.6l3.933,3.732a1.521,1.521,0,0,1,.53,1.132c0,1.67-4,1.337-4.8,1.268a37.266,37.266,0,0,1-6.333,5.4l-.4-.2a33.4,33.4,0,0,0,2.2-7.337H27.715c0,.4.064,1,.064,1.8,0,2.332-.863,8.6-5.33,8.6a2.648,2.648,0,0,1-2.934-2.537c0-1.6.534-2.063,2.669-4.065,1.264-1.2,3.8-5.462,3.732-8.8h.534a25.736,25.736,0,0,1,1,3.4h28.8a69.661,69.661,0,0,0,6.73-11.868A13.5,13.5,0,0,0,63.578,0l6.4,3.8a1.138,1.138,0,0,1,.6.931c0,1.2-2.532,1.4-3.066,1.469a68.429,68.429,0,0,1-10,9.4Zm-39-12.8c3.4.931,9.668,3.468,9.668,7.666a2.845,2.845,0,0,1-2.737,3c-1.8,0-2.4-1.661-2.865-3a18.559,18.559,0,0,0-4.335-7.332Zm7.6,27.8h21.4V24.8h-21.4Zm0,7.4h21.4V32.2h-21.4Zm21.4,1.6h-21.4v6h21.4ZM43.648,1.068c9,3.331,9,8.733,9,8.934a2.853,2.853,0,0,1-2.733,3c-2,0-2.4-1.529-3-4.134C46.18,6,44.843,2.934,43.383,1.469Z" transform="translate(61.645 0.001)" fill="#fff"/>
      <path id="パス_34" data-name="パス 34" d="M62.809,53.469v-.4c16.8-4.663,23.4-13.93,23.4-22.463,0-6.534-5.2-13.734-17.2-14-4.6,9.532-7.2,14.6-11.594,20.263.2.269,1.46,1.8,2.263,2.733,1.068,1.268,2.336,2.8,2.336,4.4,0,1-.534,2-1.6,2-2.464,0-5.133-4.134-6-5.4-2.6,3.135-7.132,7.866-10.262,7.866a2.7,2.7,0,0,1-2.2-1.132c-.465-.534-1.862-4-2.263-4.736a7.05,7.05,0,0,1-1.2-3.732c0-2.332.935-8.934,8.934-15.865C44.749,12.87,44.48,11.743,42.08,7.874c2.336.333,5.4,2.665,6.8,6.2.137.337,1.665,6.137,1.734,6.47a33.051,33.051,0,0,1,14.6-5.735c.4-.931,2.6-6.265,2.6-8.2,0-1.8-1-2.665-3.933-5a4.848,4.848,0,0,1,2.135-.47c3.732,0,7.666,2.6,7.666,5.6,0,1.337-.333,1.93-1.734,4.2a38.97,38.97,0,0,0-1.866,3.532c13.268,0,21.267,7.2,21.267,17.334,0,13.4-14.067,21.732-28.535,21.664M48.148,25.805c-5,5.6-6,10.4-6,13.6,0,1.734.333,4.535,2.6,4.535,2.6,0,6.863-5.27,7.862-6.6a60.826,60.826,0,0,1-4.463-11.535m3.13-2.934a49.574,49.574,0,0,0,4,10.668,111.964,111.964,0,0,0,9-16.535,27.943,27.943,0,0,0-13,5.868" transform="translate(125.848 3.726)" fill="#fff"/>
      <path id="パス_35" data-name="パス 35" d="M106.641,7.6c-9.13,0-10.13,0-13,.935C85.776,11.2,78.58,20.8,78.58,30.2c0,11.4,12.2,13.734,17,14.665,2.135.4,4.6,1.4,4.6,3.929,0,2-2.067,2-2.528,2-3.873,0-22.335-3.6-22.335-19.529,0-10.335,6.863-17.466,14.464-23.466-3.865-.132-17.4,4.531-24,7.533-2.865,1.264-2.934,1.332-3.6,1.332-1.469,0-4.868-2.135-4.868-6a6.521,6.521,0,0,1,1.068-3.532c1.068,2.268,2.464,3.732,5.2,3.732a18.683,18.683,0,0,0,2.866-.4c15.062-3.6,16.732-4,23.33-5.4,3.869-.867,8.6-1.8,11.466-2.669a10.08,10.08,0,0,1,2.733-.465c3.865,0,5.466,3,5.466,3.668,0,2-1.866,2-2.8,2" transform="translate(187.441 6.333)" fill="#fff"/>
      <path id="パス_36" data-name="パス 36" d="M99.558,58.869c-4.2,0-8.87-1.4-11.6-4.736-1.935-2.4-2.268-6.2-2.268-8.332a35.243,35.243,0,0,1,.8-6.8c-3.13-1.332-8.464-3.664-8.464-7.8,0-2.87,1.2-3.865,7.136-9,.726-.6.794-.935.794-1.268,0-.465-.2-.735-.73-1-5.535-3-7.469-4.134-7.533-8.336,4.065,4.07,8,5,12.863,6.137a77.026,77.026,0,0,0,1.6-10.668c0-3.331-2.263-4.668-4.33-5.731A4.134,4.134,0,0,1,90.688.406c3.2,0,7.606,3,7.606,5.4,0,.863-.269,1.4-1,3.2a52.429,52.429,0,0,0-3.4,9.668c1.665.863,2.468,2.131,2.468,3.062,0,1.8-1.8,1.738-3.668,1.67-.867,3.468-1,4.065-2.733,12.534a56.446,56.446,0,0,1,6.867.594c1.136.47,2.93,2,2.93,3.271S98.093,41.27,96.09,41.27a21.3,21.3,0,0,1-6.8-1.264,33.035,33.035,0,0,0-.265,4.467c0,3.933.666,7,3.664,8.994a11.974,11.974,0,0,0,6.53,1.87c6.406,0,10.937-4,10.937-10,0-5.8-4.8-14.6-11.069-18.863l.269-.4c10.066,5,15.933,11.133,15.933,19.4,0,11.2-11.133,13.4-15.732,13.4M80.627,30.538c0,2.865,4.335,4.266,6.465,4.868.465-2.468,1.2-6.538,2.336-12.132-5,.132-8.8,4.527-8.8,7.264" transform="translate(254.093 1.329)" fill="#fff"/>
      <path id="パス_37" data-name="パス 37" d="M106.019,27.2c-2.135,0-2.669-1.73-3.335-3.933a25.974,25.974,0,0,0-8.733-12.8l.2-.6c4.663,1.537,7.4,2.6,10.6,5.27,1.136,1,4.535,4.2,4.535,8.2,0,1.866-1.2,3.865-3.267,3.865" transform="translate(307.264 32.264)" fill="#fff"/>
      <path id="パス_38" data-name="パス 38" d="M4.732,83.67C20.8,81.27,33.8,71.807,38.866,63.407H22.194c-.931,1-1.8,2-3.13,3.267,1.268.064,9.2.465,9.2,5.334A2.612,2.612,0,0,1,25.8,74.869c-1.332,0-1.67-.6-3.335-3.4a15.366,15.366,0,0,0-3.8-4.4C14.861,70.8,9.929,74.6,4.8,76.137v-.465c9.728-6.735,16.4-17.266,17.663-20.537H7.533c-.137,5.936-3.532,7.273-5,7.273A2.4,2.4,0,0,1,0,59.8c0-1.6.666-2.2,2.733-4.065A12.377,12.377,0,0,0,6.4,49.34h.269a12.552,12.552,0,0,1,.8,4.2H51.13l1.46-1.268c.67-.534.871-.666,1.268-.666a2.428,2.428,0,0,1,1.268.534L59.594,55.6a1.829,1.829,0,0,1,.666,1.332,1.287,1.287,0,0,1-.867,1.2c-.333.137-3.263.337-3.865.4a65.635,65.635,0,0,0-6.6,4l-.4-.47c.4-.931,1.935-4.864,2.6-6.935H25.2L27.728,56.2a.919.919,0,0,1,.534.867,1.2,1.2,0,0,1-.333.871c-.265.2-1.73.8-2,1-.666.863-1.268,1.6-2.336,2.866H38.665l1.93-1.734a2.2,2.2,0,0,1,1.268-.735,2.273,2.273,0,0,1,1.4.666l3.13,2.669a1.566,1.566,0,0,1,.47,1.132c0,.867-.269.931-3.6,1.935C34.13,78,20.866,84,4.732,84.2ZM36,28.807c0-3.933,0-4.467-.8-6.666l6.137,1.4c.534.132.931.333.931.867,0,.6-.2.73-1.866,1.73a17.307,17.307,0,0,0,0,2.669h10.8l2.332-2.733c.4-.47.8-.867,1.068-.867.4,0,.735.333,1.268.73l3.8,2.737a1.475,1.475,0,0,1,.666,1.063c0,.6-.6.666-1.068.666H40.394c.068,1,.132,3.732-.2,4.266a2.883,2.883,0,0,1-2.665,1.4c-1.734,0-1.67-.534-1.6-5.667H25.264A21.909,21.909,0,0,1,25,35.14a2.5,2.5,0,0,1-2.272,1.132c-1.93,0-1.93-1-1.93-1.6V30.4H10.932a44.651,44.651,0,0,0-7.866.6L1.73,28.41c4.134.333,8.268.4,10.27.4h8.8c-.068-3.468-.068-4.6-.666-6.534l5.735,1.2c.863.2,1.063.47,1.063.935,0,.662-.931,1.132-1.665,1.529v2.87Zm10.2,8.332.935-1.132c.6-.666.8-.8,1.132-.8.2,0,.4.068,1.2.6l2.532,1.67a1.158,1.158,0,0,1,.6,1c0,.6-.132.735-1.794,1.87,0,1.264.064,7.127.064,8.332,0,2.263-3,2.464-3.263,2.464-1.136,0-1.2-.6-1.2-1.132V48.738h-32c0,2.332-2.4,2.332-2.93,2.332-1.87,0-1.87-.863-1.87-1.328,0-1.67.269-9.135.269-10.668a19.964,19.964,0,0,0-.47-4.6l5.735,2.669Zm-31.866,10H22v-8.4h-7.67Zm12.068,0h7.67v-8.4H26.4Zm20.067-8.4H38.332v8.4h8.131Z" transform="translate(0 72.412)" fill="#fff"/>
      <path id="パス_39" data-name="パス 39" d="M64.368,49.71a93.754,93.754,0,0,0-18.73,6.269,44.948,44.948,0,0,1,.67,7.866c0,1.4,0,5.8-2.4,5.8-2.464,0-2.464-3.8-2.464-4.932,0-1,0-5.535-.068-6.538-4.467,2.806-9.532,7.67-9.532,11.27,0,5.069,8.733,5.069,10.668,5.069a60.206,60.206,0,0,0,10.2-1.136,13.516,13.516,0,0,1,2.332-.269c2.865,0,4,1.738,4,2.934s-1.2,1.935-2.067,2.135a87.746,87.746,0,0,1-10.2.666c-3.668,0-17.667,0-17.667-8.263,0-6.269,8.2-12.337,12-14.87-.6-3.532-1.537-6.863-5.735-6.863-4.065,0-7.264,4-8.332,5.731-3,4.663-3.267,4.732-4.4,4.732-1.6,0-1.935-1.136-1.935-2.733,0-2.4.735-3,1.465-3.664,4.736-4.065,8.131-9.468,11.4-14.866a35.99,35.99,0,0,1-5.936.666c-4.531,0-6.73-2.464-6.6-5.936,2.067,1.935,3.933,2.468,6.867,2.468a51.973,51.973,0,0,0,7.73-.8c.935-1.537,3.668-6.465,3.668-7.6,0-.931-1.465-2.332-4.535-2.733a5.077,5.077,0,0,1,4.065-1.6c3.271,0,6.068,2.464,6.068,3.865a3.965,3.965,0,0,1-1.068,2.332,43.032,43.032,0,0,0-3.463,4.668c1.469-.4,7.866-3.066,9.267-3.066,1.6,0,3.532.935,3.532,2.263a1.862,1.862,0,0,1-1.4,1.67c-3.066,1.332-10.4,2.532-14.2,3.13-6,8.669-6.6,9.6-7.469,11.2a14.4,14.4,0,0,1,6.8-1.8c6.132,0,7.4,4,8.135,6.47,4.531-2.669,11.061-5.8,13-6.735,1.2-.6,1.666-1.068,1.666-1.93s-.534-1.268-2.067-2.4a4.177,4.177,0,0,1,1.4-.2c2.4,0,7.6,1.939,7.6,5.671,0,1.533-.867,1.8-2.268,2.063" transform="translate(67.722 73.639)" fill="#fff"/>
      <path id="パス_40" data-name="パス 40" d="M91,66.622c-.867,0-1.734-.465-3.6-2.067a53.365,53.365,0,0,0-7.935-5.863c-4.33,8.733-10,15.062-16.663,17.927l-.2-.265A58.779,58.779,0,0,0,75.678,56.621a46.021,46.021,0,0,0-16.54-4.932c-2.2,4.266-9.258,18.333-15.327,18.333-3.2,0-5.535-5.334-5.535-8.067,0-8.131,9.532-12.329,18.132-13a159.572,159.572,0,0,0,7.533-20.4.682.682,0,0,0-.735-.666c-1.734,0-5.4,2.464-6.735,3.331a5.084,5.084,0,0,1-2.4,1.136c-1.533,0-4.335-2.537-4.335-5.535a4.443,4.443,0,0,1,1-2.8,4.148,4.148,0,0,0,3.8,2.865,44.96,44.96,0,0,0,9.2-2.464,24.354,24.354,0,0,1,3-1.068c1.2,0,4.2,2.4,4.2,3.933,0,.735-.132.867-1.665,2.934-2.067,2.669-6.8,13.73-8.8,18.53a65.2,65.2,0,0,1,16.663,3.933,30.821,30.821,0,0,0,1.537-7.6c0-2.067-.8-3.463-2.537-5.6a4.639,4.639,0,0,1,1.67-.337c2.729,0,6,3.668,6,5.735a49.139,49.139,0,0,1-2.6,9.6c5.47,2.665,12.068,6,12.068,9.6A2.264,2.264,0,0,1,91,66.622M41.078,60.755c0,2.934,1.93,5,3.4,5,2.6,0,8.665-9.335,10.6-13.935-3.933-.4-13.994,2.8-13.994,8.934" transform="translate(125.184 76.393)" fill="#fff"/>
      <path id="パス_41" data-name="パス 41" d="M106.641,29.6c-9.13,0-10.13,0-13,.935C85.776,33.2,78.58,42.8,78.58,52.2c0,11.4,12.2,13.734,17,14.665,2.135.4,4.6,1.4,4.6,3.929,0,2-2.067,2-2.528,2-3.873,0-22.335-3.6-22.335-19.529,0-10.335,6.863-17.466,14.464-23.466-3.865-.132-17.4,4.531-24,7.533-2.865,1.264-2.934,1.332-3.6,1.332-1.469,0-4.868-2.135-4.868-6a6.521,6.521,0,0,1,1.068-3.532c1.068,2.268,2.464,3.732,5.2,3.732a18.682,18.682,0,0,0,2.866-.4c15.062-3.6,16.732-4,23.33-5.4,3.869-.867,8.6-1.8,11.466-2.669a10.079,10.079,0,0,1,2.733-.465c3.865,0,5.466,3,5.466,3.668,0,2-1.866,2-2.8,2" transform="translate(187.441 78.283)" fill="#fff"/>
      <path id="パス_42" data-name="パス 42" d="M93.863,58.269a3.982,3.982,0,0,0-.132.863c0,.534.534,3.07.534,3.6A1.979,1.979,0,0,1,92.2,65c-2.332,0-11.8-3.331-12.935-22.335-.4-6.594-.662-10.8-1.063-12.265a23.019,23.019,0,0,0-2.332-5.466c3.4.2,8.4,3.135,8.4,7.469A9.369,9.369,0,0,1,84,34.6a57.6,57.6,0,0,0-.867,9.267c0,8.2,4,13.063,5.8,13.063.735,0,1.4-.867,1.6-1.2,3-4.467,7.935-11.53,10.8-16.066l.534.2c-.931,2-7.862,17.667-8,18.4m33-4.134c-.8,0-1.068-.265-3.664-2.737-1.8-1.661-5.4-2.332-7.068-2.665v-.4c.935-.137,5.466-.534,5.932-.67a1.682,1.682,0,0,0,1.469-1.734c0-2.063-3.468-11.863-11.731-16a5.714,5.714,0,0,1,1.132-.132c7.465,0,16.266,12.265,16.266,20,0,2.332-1.268,4.335-2.336,4.335" transform="translate(248.121 81.547)" fill="#fff"/>
      <path id="パス_43" data-name="パス 43" d="M120.9,74.8c-6.4,0-13-2.605-13-7.8,0-4.6,4.6-5.8,7.332-5.8,5,0,8.733,3.463,10.467,9,5.334-.931,9.066-6.662,9.066-11.731,0-5.265-4.065-9.933-10.868-9.933-13,0-21.6,12.6-22.6,14.135-1.665,2.665-2.268,3.664-3.668,3.664-.8,0-2.263-.465-2.263-2.8,0-2.2.534-2.737,4.531-6.6,5.334-5.265,21.732-26.532,21.732-29.065,0-.4-.2-.666-.735-.666-.867,0-5.932,1.67-9.532,3.6-.132.064-2.733,1.469-2.934,1.469a6.52,6.52,0,0,1-5.4-6.269,2.978,2.978,0,0,1,.73-2.2c1.537,2.532,2.733,3.135,4.6,3.135,3.2,0,10.262-2,12.265-2.665.465-.137,2.665-.871,3-.871,2.537,0,4.864,3.2,4.864,4.6,0,1.068,0,1.132-2.4,2.93-1.734,1.337-14.532,16-17.2,20.332,4-2.263,9.066-4.736,16-4.736,10.727,0,14.93,6.4,14.93,12.47,0,7.666-6.666,15.8-18.931,15.8m-7.264-10.937c-1.332,0-3.2.867-3.2,2.8,0,3.468,6.867,5,8.8,5a6.279,6.279,0,0,0,2.332-.4c-1.4-4.932-5.731-7.4-7.93-7.4" transform="translate(311.912 76.546)" fill="#fff"/>
      <path id="パス_44" data-name="パス 44" d="M122.37,51.09a9.832,9.832,0,1,1,9.668-9.861,9.7,9.7,0,0,1-9.668,9.861m0-17.731a7.9,7.9,0,1,0,7.734,7.935,7.8,7.8,0,0,0-7.734-7.935" transform="translate(368.811 102.789)" fill="#fff"/>
    </g>
  </g>
</svg>
