<svg xmlns="http://www.w3.org/2000/svg" width="100" height="100" viewBox="0 0 100 100">
  <g id="qr" transform="translate(0 0.001)">
    <path id="パス_9675" data-name="パス 9675" d="M24,0V3h6V0Z" transform="translate(-4.718)" fill="#ff5800"/>
    <rect id="長方形_1514" data-name="長方形 1514" width="3.001" height="3.001" transform="translate(46.074 -0.001)" fill="#ff5800"/>
    <path id="パス_9676" data-name="パス 9676" d="M105,15V3h15V18H105ZM102,0V21h21V0Z" transform="translate(-23.001)" fill="#ff5800"/>
    <path id="パス_9677" data-name="パス 9677" d="M36,0V6h6V0Z" transform="translate(-7.077)" fill="#ff5800"/>
    <path id="パス_9678" data-name="パス 9678" d="M48,0V6h6V9H48v3h3v3h6v3h3V15h3V9H60v3H57V9h3V6H57V3H54V0Z" transform="translate(-10.223)" fill="#ff5800"/>
    <rect id="長方形_1515" data-name="長方形 1515" width="3" height="3" transform="translate(48.499 3)" fill="#ff5800"/>
    <path id="パス_9679" data-name="パス 9679" d="M63,0V3h3V6h6V3h9V0Z" transform="translate(-13.801)" fill="#ff5800"/>
    <path id="パス_9680" data-name="パス 9680" d="M96,6H93V3h3ZM93,0V3H87V0H84V6h6V9h9V0Z" transform="translate(-17.89)" fill="#ff5800"/>
    <rect id="長方形_1516" data-name="長方形 1516" width="3" height="3" transform="translate(36.375 6)" fill="#ff5800"/>
    <rect id="長方形_1517" data-name="長方形 1517" width="3" height="3" transform="translate(60.624 6)" fill="#ff5800"/>
    <path id="パス_9681" data-name="パス 9681" d="M111,6h-3v9h9V6h-6Z" transform="translate(-23.001)" fill="#ff5800"/>
    <path id="パス_9682" data-name="パス 9682" d="M27,9h3v6h3V12h6V9H33V3H30V6H24v9h3V9Z" transform="translate(-5.111)" fill="#ff5800"/>
    <rect id="長方形_1518" data-name="長方形 1518" width="3" height="3" transform="translate(53.349 9)" fill="#ff5800"/>
    <path id="パス_9683" data-name="パス 9683" d="M81,12v3h6V12H84V9H78v3Z" transform="translate(-15.738)" fill="#ff5800"/>
    <path id="パス_9684" data-name="パス 9684" d="M12,15h3V6H6v9h6Z" fill="#ff5800"/>
    <rect id="長方形_1519" data-name="長方形 1519" width="3" height="3" transform="translate(72.749 12)" fill="#ff5800"/>
    <rect id="長方形_1520" data-name="長方形 1520" width="3" height="3" transform="translate(21.825 15)" fill="#ff5800"/>
    <path id="パス_9685" data-name="パス 9685" d="M36,15H33v3h3v3h3V18h3V15h3V9H42v3H39v3Z" transform="translate(-6.838)" fill="#ff5800"/>
    <path id="パス_9686" data-name="パス 9686" d="M69,15H66v6h3V15Z" transform="translate(-12.651)" fill="#ff5800"/>
    <path id="パス_9687" data-name="パス 9687" d="M3,15V3H18V18H3ZM0,0V21H21V0Z" fill="#ff5800"/>
    <rect id="長方形_1521" data-name="長方形 1521" width="3" height="3" transform="translate(19.4 18)" fill="#ff5800"/>
    <rect id="長方形_1522" data-name="長方形 1522" width="3" height="3" transform="translate(33.95 18)" fill="#ff5800"/>
    <rect id="長方形_1523" data-name="長方形 1523" width="3" height="3" transform="translate(38.8 18)" fill="#ff5800"/>
    <rect id="長方形_1524" data-name="長方形 1524" width="3" height="3" transform="translate(43.649 18)" fill="#ff5800"/>
    <rect id="長方形_1525" data-name="長方形 1525" width="3" height="3" transform="translate(48.499 18)" fill="#ff5800"/>
    <path id="パス_9688" data-name="パス 9688" d="M78,21v3h3V18H78Z" transform="translate(-14.951 -1.731)" fill="#ff5800"/>
    <rect id="長方形_1526" data-name="長方形 1526" width="3" height="3" transform="translate(67.899 18)" fill="#ff5800"/>
    <path id="パス_9689" data-name="パス 9689" d="M96,21h3V15H93v3h3Z" transform="translate(-18.283)" fill="#ff5800"/>
    <path id="パス_9690" data-name="パス 9690" d="M33,24V18H30v3H27v3h6Z" transform="translate(-5.308 -1.731)" fill="#ff5800"/>
    <path id="パス_9691" data-name="パス 9691" d="M51,24v3h3V21H51Z" transform="translate(-9.776 -4.129)" fill="#ff5800"/>
    <path id="パス_9692" data-name="パス 9692" d="M9,24H0v6H3V27H6v3H9V27h3V24Z" transform="translate(0 -4.718)" fill="#ff5800"/>
    <rect id="長方形_1527" data-name="長方形 1527" width="3" height="3" transform="translate(18 19.4)" fill="#ff5800"/>
    <path id="パス_9693" data-name="パス 9693" d="M36,27h3V24H33v3Z" transform="translate(-6.488 -4.6)" fill="#ff5800"/>
    <rect id="長方形_1528" data-name="長方形 1528" width="3" height="3" transform="translate(33.95 19.4)" fill="#ff5800"/>
    <path id="パス_9694" data-name="パス 9694" d="M90,27V24h3V18H90v3H87v3H84v6h3V27Z" transform="translate(-16.948 -1.837)" fill="#ff5800"/>
    <path id="パス_9695" data-name="パス 9695" d="M120,24v3h-3v3h-3v3h6V30h3V24Z" transform="translate(-23.001 -4.843)" fill="#ff5800"/>
    <path id="パス_9696" data-name="パス 9696" d="M93,30h6V27h3V24H96v3H90v3Z" transform="translate(-18.65 -4.718)" fill="#ff5800"/>
    <path id="パス_9697" data-name="パス 9697" d="M105,30h3v3h-6v3h3v3h3V36h3V30h3V27h3V24h-9v3h-6v3Z" transform="translate(-23.001 -5.112)" fill="#ff5800"/>
    <rect id="長方形_1529" data-name="長方形 1529" width="3" height="3" transform="translate(38.8 24.25)" fill="#ff5800"/>
    <path id="パス_9698" data-name="パス 9698" d="M66,33v6H63v3h3v3h3V33h3V30h3v6H72v6h6V39h3v3h6V39H84V36H81V33H78V27H75V9H72V21H69v3H57v6h3V27h6v3H60v3h6Z" transform="translate(-14.097)" fill="#ff5800"/>
    <rect id="長方形_1530" data-name="長方形 1530" width="3" height="3" transform="translate(70.324 24.25)" fill="#ff5800"/>
    <rect id="長方形_1531" data-name="長方形 1531" width="3" height="3" transform="translate(46.074 26.675)" fill="#ff5800"/>
    <rect id="長方形_1532" data-name="長方形 1532" width="3" height="3" transform="translate(67.899 26.675)" fill="#ff5800"/>
    <path id="パス_9699" data-name="パス 9699" d="M12,39v6h3v6h6V48H18V45h3V42H18V39h6V36H15V33h9V30h3v6h6V33H30V27H27V24H24v3H21v3H15V27H12v9H9v3Z" transform="translate(0 -5.75)" fill="#ff5800"/>
    <rect id="長方形_1533" data-name="長方形 1533" width="3" height="3" transform="translate(43.649 29.099)" fill="#ff5800"/>
    <rect id="長方形_1534" data-name="長方形 1534" width="3" height="3" transform="translate(48.499 29.099)" fill="#ff5800"/>
    <path id="パス_9700" data-name="パス 9700" d="M120,33v6h-3v3h-3v3h3v6h3V45h3V33Z" transform="translate(-23.001 -7.229)" fill="#ff5800"/>
    <path id="パス_9701" data-name="パス 9701" d="M33,42H30v6h6V42h6V39H39V36h9V33H45V30H42v3H39V30H36v6H33v6Z" transform="translate(-6.572 -6.572)" fill="#ff5800"/>
    <path id="パス_9702" data-name="パス 9702" d="M111,42h3V39h3V36h-6v6Z" transform="translate(-23.001 -7.077)" fill="#ff5800"/>
    <path id="パス_9703" data-name="パス 9703" d="M45,45h3v3h3V42h3V39H48v3H42v3Z" transform="translate(-8.703 -7.869)" fill="#ff5800"/>
    <path id="パス_9704" data-name="パス 9704" d="M63,42H60V39H57v6h3v3h3v3h3V45H63Z" transform="translate(-11.501 -8.082)" fill="#ff5800"/>
    <rect id="長方形_1535" data-name="長方形 1535" width="3" height="3" transform="translate(63.049 33.949)" fill="#ff5800"/>
    <rect id="長方形_1536" data-name="長方形 1536" width="3" height="3" transform="translate(43.649 36.374)" fill="#ff5800"/>
    <path id="パス_9705" data-name="パス 9705" d="M111,48h-3V45h3V42h-6V39h-3v6H96V42h3V33H93v3h3v3H93V36H87v3h3v3H87v3h3v6h6V48h3v3h3V48h3v9h3V51h3v3h3V45h-3Z" transform="translate(-23.001 -7.667)" fill="#ff5800"/>
    <rect id="長方形_1537" data-name="長方形 1537" width="3" height="3" transform="translate(31.525 38.799)" fill="#ff5800"/>
    <path id="パス_9706" data-name="パス 9706" d="M6,33H3v3H0v3H3v3H0v3H3v3H0V60H3V54H6v3H9V54h6V51H12V45H9v3H6V36H9V33Z" transform="translate(0 -7.907)" fill="#ff5800"/>
    <path id="パス_9707" data-name="パス 9707" d="M72,51h3v3H72v3h6V48H69v6h3Z" transform="translate(-13.922 -9.685)" fill="#ff5800"/>
    <path id="パス_9708" data-name="パス 9708" d="M96,54v6h3v3h3v6h3v6h3V66h3V63h-3V60h-6V54H99V51H96Z" transform="translate(-23.001 -11.849)" fill="#ff5800"/>
    <path id="パス_9709" data-name="パス 9709" d="M69,57V54H63v3h6Z" transform="translate(-12.385 -10.351)" fill="#ff5800"/>
    <path id="パス_9710" data-name="パス 9710" d="M84,54V51h3V48H84V45H81V57h3Z" transform="translate(-15.924 -9.325)" fill="#ff5800"/>
    <rect id="長方形_1538" data-name="長方形 1538" width="3" height="3" transform="translate(48.499 46.074)" fill="#ff5800"/>
    <rect id="長方形_1539" data-name="長方形 1539" width="3" height="3" transform="translate(55.774 46.074)" fill="#ff5800"/>
    <path id="パス_9711" data-name="パス 9711" d="M36,63v3H33v3h6V66h3V63h3V60h3V54h3v3h3V54h3V51H48V48H45v6H39v3H36v3H33v3Z" transform="translate(-7.667 -10.824)" fill="#ff5800"/>
    <rect id="長方形_1540" data-name="長方形 1540" width="3" height="3" transform="translate(58.199 48.499)" fill="#ff5800"/>
    <path id="パス_9712" data-name="パス 9712" d="M81,60V57H78v6h3Z" transform="translate(-14.951 -11.206)" fill="#ff5800"/>
    <path id="パス_9713" data-name="パス 9713" d="M93,63H90V60h3V54H90v3H87v3H84v6h3v3h3V66h6v3h3V63H96V60H93Z" transform="translate(-17.89 -11.501)" fill="#ff5800"/>
    <path id="パス_9714" data-name="パス 9714" d="M3,63H0v3H6V63Z" transform="translate(0 -12.076)" fill="#ff5800"/>
    <rect id="長方形_1541" data-name="長方形 1541" width="3" height="3" transform="translate(36.375 50.924)" fill="#ff5800"/>
    <path id="パス_9715" data-name="パス 9715" d="M120,60v6h3V60Z" transform="translate(-23.001 -11.796)" fill="#ff5800"/>
    <rect id="長方形_1542" data-name="長方形 1542" width="3" height="3" transform="translate(6 53.349)" fill="#ff5800"/>
    <path id="パス_9716" data-name="パス 9716" d="M48,66v6H45V66H42v3H39v6h6v3h3V75h3v3h6V72H51V69h3V66H48Z" transform="translate(-8.543 -13.676)" fill="#ff5800"/>
    <path id="パス_9717" data-name="パス 9717" d="M114,69h6V66h-3V57h-6v3h3v6h-3v3Z" transform="translate(-23.001 -11.812)" fill="#ff5800"/>
    <path id="パス_9718" data-name="パス 9718" d="M15,69h6v3H18v3h3v3h3V75h3V72H24V69h6V66H27V60h6V54h6V51H30V48H24v3h3v3h3v3H24V54H15v3H12v3H9v3h6v3H12v6h3Zm6-9H18V57h3Zm-3,3h6v3H18Z" transform="translate(0 -11.872)" fill="#ff5800"/>
    <rect id="長方形_1543" data-name="長方形 1543" width="3" height="3" transform="translate(24.25 55.774)" fill="#ff5800"/>
    <path id="パス_9719" data-name="パス 9719" d="M63,69H60v6h3V69Z" transform="translate(-11.501 -13.565)" fill="#ff5800"/>
    <path id="パス_9720" data-name="パス 9720" d="M99,72v3h3V69H99Z" transform="translate(-21.039 -13.565)" fill="#ff5800"/>
    <rect id="長方形_1544" data-name="長方形 1544" width="3" height="3" transform="translate(55.774 58.199)" fill="#ff5800"/>
    <path id="パス_9721" data-name="パス 9721" d="M120,69v3h-6v9h9V69Z" transform="translate(-23.001 -14.298)" fill="#ff5800"/>
    <rect id="長方形_1545" data-name="長方形 1545" width="3" height="3" transform="translate(21.825 60.624)" fill="#ff5800"/>
    <path id="パス_9722" data-name="パス 9722" d="M36,75H33v3h6V75Z" transform="translate(-6.488 -14.376)" fill="#ff5800"/>
    <path id="パス_9723" data-name="パス 9723" d="M102,78H96V75H93v3H90V72H78V69h3V66H78V63H75v3H72V63H60V60H54v6H66v3h9v6h6v3h6v3h3v6h3V81h3v3h3v3H96v6h3V90h3V81h3v3h3V81h3V78h-6V75h-3Z" transform="translate(-23.001 -15.334)" fill="#ff5800"/>
    <path id="パス_9724" data-name="パス 9724" d="M9,72H6v3H3V72H0v6H3v6H6V78h6v3h9V78H15V75H12V72Z" transform="translate(0 -14.92)" fill="#ff5800"/>
    <path id="パス_9725" data-name="パス 9725" d="M30,81v3h3V78H30Z" transform="translate(-5.75 -15.334)" fill="#ff5800"/>
    <rect id="長方形_1546" data-name="長方形 1546" width="3" height="3" transform="translate(31.525 63.049)" fill="#ff5800"/>
    <path id="パス_9726" data-name="パス 9726" d="M75,78H72v3H66V78h3V75H63v9H60V78H57v9h3v3h3v3h3V87h3v3h9V84H75v3H72V84h3V81h3v3h6v3h3V81H81V78H75Z" transform="translate(-14.097 -16.43)" fill="#ff5800"/>
    <rect id="長方形_1547" data-name="長方形 1547" width="3" height="3" transform="translate(9 65.474)" fill="#ff5800"/>
    <rect id="長方形_1548" data-name="長方形 1548" width="3" height="3" transform="translate(0 67.899)" fill="#ff5800"/>
    <path id="パス_9727" data-name="パス 9727" d="M6,87v3H9V84H6Z" transform="translate(0 -16.514)" fill="#ff5800"/>
    <rect id="長方形_1549" data-name="長方形 1549" width="3" height="3" transform="translate(41.224 67.899)" fill="#ff5800"/>
    <path id="パス_9728" data-name="パス 9728" d="M111,87h3V84h-6v3Z" transform="translate(-23.001 -16.101)" fill="#ff5800"/>
    <path id="パス_9729" data-name="パス 9729" d="M120,84h-3v3h6V84Z" transform="translate(-23.001 -16.101)" fill="#ff5800"/>
    <path id="パス_9730" data-name="パス 9730" d="M57,87H54v3H51v3H45V81H42v6H36v3H33v3h3v3h3V90h3v9h6V96h3v6h3V93h3V87Z" transform="translate(-7.667 -18.266)" fill="#ff5800"/>
    <rect id="長方形_1550" data-name="長方形 1550" width="3" height="3" transform="translate(81.999 70.324)" fill="#ff5800"/>
    <rect id="長方形_1551" data-name="長方形 1551" width="3" height="3" transform="translate(90.999 70.324)" fill="#ff5800"/>
    <rect id="長方形_1552" data-name="長方形 1552" width="3" height="3.001" transform="translate(0 72.748)" fill="#ff5800"/>
    <path id="パス_9731" data-name="パス 9731" d="M30,90h3V87H24V84h3V81H21v3H15v6H12v3h3v6h6V96H18V93h3V90H18V87h3v3h3v3h3v3h3V90Z" transform="translate(0 -17.744)" fill="#ff5800"/>
    <path id="パス_9732" data-name="パス 9732" d="M99,105V99h9v9H99ZM87,87v3H84V87H81v6h6v3H81v3h3v3h3v3h3V99h6v3H93v3h3v6h3v3h3v-3h3v3h12v9h3v-6h3v-6h-6v-3h-3v3h-3v-3h3v-3h-3V99h3v3h3v6h6v-3h-3v-3h3V96h-3V93h-6V90h-3v3h-3v3h-3V90h-3v6H93V93H90V87Z" transform="translate(-23.001 -23.001)" fill="#ff5800"/>
    <path id="パス_9733" data-name="パス 9733" d="M63,96V93H57v6h3V96Z" transform="translate(-11.206 -18.283)" fill="#ff5800"/>
    <rect id="長方形_1553" data-name="長方形 1553" width="3" height="3" transform="translate(63.049 75.174)" fill="#ff5800"/>
    <path id="パス_9734" data-name="パス 9734" d="M3,99h9V96H3Z" transform="translate(0 -18.401)" fill="#ff5800"/>
    <path id="パス_9735" data-name="パス 9735" d="M27,99H24v3h6V99Z" transform="translate(-4.718 -21.039)" fill="#ff5800"/>
    <path id="パス_9736" data-name="パス 9736" d="M3,117V105H18v15H3Zm15-15H0v21H21V102Z" transform="translate(0 -23.001)" fill="#ff5800"/>
    <rect id="長方形_1554" data-name="長方形 1554" width="3" height="3" transform="translate(43.649 78.999)" fill="#ff5800"/>
    <rect id="長方形_1555" data-name="長方形 1555" width="3" height="3" transform="translate(78.999 78.999)" fill="#ff5800"/>
    <path id="パス_9737" data-name="パス 9737" d="M48,105H45v3H42v3H39v3H36v6h3v-3h3v-3h3v-3h6v-3h3v-3H48Z" transform="translate(-7.886 -23.001)" fill="#ff5800"/>
    <rect id="長方形_1556" data-name="長方形 1556" width="3" height="3" transform="translate(67.899 81.999)" fill="#ff5800"/>
    <rect id="長方形_1557" data-name="長方形 1557" width="3" height="3" transform="translate(72.749 81.999)" fill="#ff5800"/>
    <path id="パス_9738" data-name="パス 9738" d="M9,108H6v9h9v-9H9Z" transform="translate(0 -23.001)" fill="#ff5800"/>
    <path id="パス_9739" data-name="パス 9739" d="M30,108h3v-3h9V99H39v3H36V96H30v3h3v3H30v3H27v6h3Z" transform="translate(-5.75 -23.001)" fill="#ff5800"/>
    <path id="パス_9740" data-name="パス 9740" d="M72,93H66v3H63v3H60v3h6v9h3v-3h6v3H72v3h6v-3h3v3h3v6H81v3h6v-9h3v-6H87v3H84v-3H81v-6H69V96h6V93Z" transform="translate(-14.839 -23.001)" fill="#ff5800"/>
    <path id="パス_9741" data-name="パス 9741" d="M24,111v12h3v-6h3v-3H27v-3Z" transform="translate(-4.718 -23.001)" fill="#ff5800"/>
    <path id="パス_9742" data-name="パス 9742" d="M33,111H30v3h6v-3Z" transform="translate(-5.898 -23.001)" fill="#ff5800"/>
    <rect id="長方形_1558" data-name="長方形 1558" width="3" height="3" transform="translate(41.224 87.999)" fill="#ff5800"/>
    <path id="パス_9743" data-name="パス 9743" d="M81,114H78v6h3v-6Z" transform="translate(-14.951 -23.001)" fill="#ff5800"/>
    <path id="パス_9744" data-name="パス 9744" d="M45,120h3v-3H42v3Z" transform="translate(-8.257 -23.001)" fill="#ff5800"/>
    <path id="パス_9745" data-name="パス 9745" d="M60,105v3H57v6H54v6h3v-3h6v3H60v3h6v-3h3v3h6v-6H66v-3H60v-3h3v-6Z" transform="translate(-12.177 -23.001)" fill="#ff5800"/>
    <path id="パス_9746" data-name="パス 9746" d="M93,114H90v9h9v-6H96v3H93v-3h3v-3Z" transform="translate(-18.159 -23.001)" fill="#ff5800"/>
    <rect id="長方形_1559" data-name="長方形 1559" width="3" height="3" transform="translate(81.999 93.999)" fill="#ff5800"/>
    <rect id="長方形_1560" data-name="長方形 1560" width="3" height="3" transform="translate(87.999 93.999)" fill="#ff5800"/>
    <path id="パス_9747" data-name="パス 9747" d="M33,120H30v3h6v-3Z" transform="translate(-5.898 -23.001)" fill="#ff5800"/>
    <rect id="長方形_1561" data-name="長方形 1561" width="3.001" height="3" transform="translate(31.525 96.999)" fill="#ff5800"/>
    <rect id="長方形_1562" data-name="長方形 1562" width="3.001" height="3" transform="translate(38.799 96.999)" fill="#ff5800"/>
    <rect id="長方形_1563" data-name="長方形 1563" width="3" height="3" transform="translate(84.999 96.999)" fill="#ff5800"/>
  </g>
</svg>
