<svg id="salon_insta" xmlns="http://www.w3.org/2000/svg" xmlns:xlink="http://www.w3.org/1999/xlink" width="34.008" height="34.008" viewBox="0 0 34.008 34.008">
  <defs>
    <clipPath id="clip-path">
      <rect id="長方形_17" data-name="長方形 17" width="34.008" height="34.008" transform="translate(0 0)" fill="#ff5800"/>
    </clipPath>
  </defs>
  <g id="グループ_3035" data-name="グループ 3035" transform="translate(0 0)" clip-path="url(#clip-path)">
    <path id="パス_9495" data-name="パス 9495" d="M24.065,34.008H9.943A9.954,9.954,0,0,1,0,24.065V9.943A9.954,9.954,0,0,1,9.943,0H24.065a9.954,9.954,0,0,1,9.943,9.943V24.065a9.954,9.954,0,0,1-9.943,9.943M9.943,3.17A6.78,6.78,0,0,0,3.17,9.943V24.065a6.78,6.78,0,0,0,6.773,6.773H24.065a6.78,6.78,0,0,0,6.773-6.773V9.943A6.78,6.78,0,0,0,24.065,3.17Z" transform="translate(0 0)" fill="#ff5800"/>
    <path id="パス_9496" data-name="パス 9496" d="M55.959,14.667a2.119,2.119,0,1,1-2.119-2.119,2.119,2.119,0,0,1,2.119,2.119" transform="translate(-27.749 -6.732)" fill="#ff5800"/>
    <path id="パス_9497" data-name="パス 9497" d="M26.511,35.3a8.79,8.79,0,1,1,8.79-8.79,8.8,8.8,0,0,1-8.79,8.79m0-14.41a5.62,5.62,0,1,0,5.62,5.62,5.627,5.627,0,0,0-5.62-5.62" transform="translate(-9.508 -9.508)" fill="#ff5800"/>
  </g>
</svg>
