<svg height="23" viewBox="0 0 23 23" width="23" xmlns="http://www.w3.org/2000/svg" xmlns:xlink="http://www.w3.org/1999/xlink"><clipPath id="a"><path d="m0 0h23v23h-23z"/></clipPath><g clip-path="url(#a)" fill="#0570b4"><path d="m16.275 23h-9.55a6.732 6.732 0 0 1 -6.725-6.725v-9.55a6.732 6.732 0 0 1 6.725-6.725h9.551a6.732 6.732 0 0 1 6.724 6.725v9.551a6.732 6.732 0 0 1 -6.725 6.724m-9.55-20.856a4.586 4.586 0 0 0 -4.581 4.581v9.551a4.586 4.586 0 0 0 4.581 4.581h9.551a4.586 4.586 0 0 0 4.581-4.581v-9.551a4.586 4.586 0 0 0 -4.581-4.581z"/><path d="m54.587 13.981a1.433 1.433 0 1 1 -1.433-1.433 1.433 1.433 0 0 1 1.433 1.433" transform="translate(-35.508 -8.615)"/><path d="m23.666 29.612a5.945 5.945 0 1 1 5.945-5.945 5.952 5.952 0 0 1 -5.945 5.945m0-9.746a3.8 3.8 0 1 0 3.8 3.8 3.805 3.805 0 0 0 -3.8-3.8" transform="translate(-12.166 -12.167)"/></g></svg>