<svg height="22" viewBox="0 0 21 22" width="21" xmlns="http://www.w3.org/2000/svg" xmlns:xlink="http://www.w3.org/1999/xlink"><clipPath id="a"><path d="m-.094-.432h21v22h-21z"/></clipPath><g clip-path="url(#a)" fill="#f8ff24" transform="translate(.094 .432)"><path d="m15.046 21.263h-8.829a6.224 6.224 0 0 1 -6.217-6.217v-8.829a6.224 6.224 0 0 1 6.217-6.217h8.829a6.224 6.224 0 0 1 6.217 6.217v8.829a6.224 6.224 0 0 1 -6.217 6.217m-8.829-19.281a4.239 4.239 0 0 0 -4.235 4.235v8.829a4.239 4.239 0 0 0 4.235 4.235h8.829a4.239 4.239 0 0 0 4.235-4.235v-8.829a4.239 4.239 0 0 0 -4.235-4.235z"/><path d="m54.37 13.873a1.325 1.325 0 1 1 -1.325-1.325 1.325 1.325 0 0 1 1.325 1.325" transform="translate(-36.732 -8.912)"/><path d="m23.217 28.714a5.5 5.5 0 1 1 5.5-5.5 5.5 5.5 0 0 1 -5.5 5.5m0-9.01a3.514 3.514 0 1 0 3.514 3.514 3.518 3.518 0 0 0 -3.514-3.518" transform="translate(-12.586 -12.586)"/></g></svg>